<svg width="320" height="202" viewBox="0 0 320 202" fill="none" xmlns="http://www.w3.org/2000/svg">
<g clip-path="url(#clip0_820_2771)">
<path d="M320 82.9629H319.46V68.094C319.46 66.9639 319.238 65.8448 318.807 64.8007C318.377 63.7566 317.746 62.8079 316.95 62.0088C316.154 61.2097 315.21 60.5758 314.17 60.1433C313.13 59.7109 312.016 59.4883 310.891 59.4883H279.524C278.399 59.4883 277.285 59.7109 276.245 60.1433C275.206 60.5758 274.261 61.2097 273.465 62.0088C272.67 62.8079 272.038 63.7566 271.608 64.8007C271.177 65.8448 270.956 66.9639 270.956 68.094V149.666C270.956 150.796 271.177 151.915 271.608 152.959C272.038 154.003 272.67 154.952 273.465 155.751C274.261 156.55 275.206 157.184 276.245 157.617C277.285 158.049 278.399 158.272 279.524 158.272H310.891C312.016 158.272 313.13 158.049 314.17 157.617C315.21 157.184 316.154 156.55 316.95 155.751C317.746 154.952 318.377 154.003 318.807 152.959C319.238 151.915 319.46 150.796 319.46 149.666V93.5469H320V82.9629Z" fill="#3F3D56"/>
<path d="M317.636 68.6005V150.054C317.636 151.759 316.962 153.393 315.762 154.599C314.561 155.804 312.934 156.481 311.236 156.481H279.719C278.879 156.481 278.047 156.315 277.27 155.992C276.494 155.669 275.789 155.195 275.195 154.598C274.601 154.002 274.129 153.293 273.808 152.513C273.487 151.733 273.321 150.898 273.322 150.054V68.6005C273.322 66.8965 273.996 65.2624 275.195 64.0576C276.395 62.8527 278.022 62.1758 279.719 62.1758H283.543C283.355 62.6393 283.284 63.1421 283.335 63.6399C283.386 64.1376 283.558 64.6151 283.836 65.0304C284.114 65.4457 284.489 65.7861 284.929 66.0216C285.369 66.2571 285.859 66.3805 286.357 66.381H304.327C304.826 66.382 305.317 66.2595 305.758 66.0244C306.198 65.7893 306.574 65.4488 306.852 65.0331C307.131 64.6174 307.303 64.1392 307.353 63.6408C307.404 63.1425 307.331 62.6393 307.142 62.1758H311.236C312.933 62.1757 314.561 62.8525 315.761 64.0573C316.961 65.2621 317.635 66.8962 317.636 68.6005Z" fill="white"/>
<path d="M311.669 103.878H275.032V113.807H311.669V103.878Z" fill="#01A05D"/>
<path d="M313.123 112.054H277.649C277.417 112.054 277.196 111.962 277.032 111.797C276.868 111.633 276.776 111.41 276.776 111.178V102.417C276.776 102.185 276.868 101.962 277.032 101.798C277.196 101.634 277.417 101.541 277.649 101.541H313.123C313.355 101.541 313.576 101.634 313.74 101.798C313.903 101.962 313.995 102.185 313.996 102.417V111.178C313.995 111.41 313.903 111.633 313.74 111.797C313.576 111.962 313.355 112.054 313.123 112.054ZM277.649 102.125C277.571 102.125 277.498 102.156 277.443 102.211C277.389 102.265 277.358 102.34 277.358 102.417V111.178C277.358 111.255 277.389 111.33 277.443 111.384C277.498 111.439 277.571 111.47 277.649 111.47H313.123C313.2 111.47 313.274 111.439 313.329 111.384C313.383 111.33 313.414 111.255 313.414 111.178V102.417C313.414 102.34 313.383 102.265 313.329 102.211C313.274 102.156 313.2 102.125 313.123 102.125H277.649Z" fill="#3F3D56"/>
<path d="M283.755 109.426H279.102V110.01H283.755V109.426Z" fill="#3F3D56"/>
<path d="M290.152 109.426H285.5V110.01H290.152V109.426Z" fill="#3F3D56"/>
<path d="M296.549 109.426H291.897V110.01H296.549V109.426Z" fill="#3F3D56"/>
<path d="M302.946 109.426H298.294V110.01H302.946V109.426Z" fill="#3F3D56"/>
<path d="M309.343 109.426H304.691V110.01H309.343V109.426Z" fill="#3F3D56"/>
<path opacity="0.1" d="M317.636 141.771V150.053C317.636 151.758 316.962 153.393 315.762 154.598C314.561 155.804 312.934 156.481 311.236 156.481H279.719C278.879 156.481 278.047 156.315 277.27 155.992C276.494 155.668 275.789 155.195 275.195 154.598C274.601 154.001 274.129 153.293 273.808 152.513C273.487 151.733 273.321 150.897 273.322 150.053V111.955L317.636 141.771Z" fill="black"/>
<path d="M166.572 134.249H29.0344V202H166.572V134.249Z" fill="white"/>
<path opacity="0.1" d="M131.606 202H29.616C29.4619 202 29.3142 201.938 29.2053 201.829C29.0963 201.719 29.0349 201.571 29.0344 201.416V134.833C29.0349 134.678 29.0963 134.53 29.2053 134.421C29.3142 134.311 29.4619 134.249 29.616 134.249H30.907L131.606 202Z" fill="black"/>
<path d="M305.854 143.302H92.7145V143.886H305.854V143.302Z" fill="#3F3D56"/>
<path d="M160.1 1.26092H99.185V0H71.5639V1.26092H10.398C9.85691 1.26092 9.32111 1.36796 8.82119 1.57592C8.32128 1.78389 7.86705 2.0887 7.48443 2.47297C7.10181 2.85724 6.79831 3.31343 6.59123 3.8155C6.38416 4.31757 6.27759 4.85568 6.27759 5.39912V89.17C6.27759 90.2675 6.7117 91.3201 7.48443 92.0961C8.25716 92.8722 9.30521 93.3082 10.398 93.3082H160.1C161.193 93.3082 162.241 92.8722 163.013 92.0961C163.786 91.3201 164.22 90.2675 164.22 89.17V5.39912C164.22 4.85568 164.114 4.31757 163.906 3.8155C163.699 3.31343 163.396 2.85724 163.013 2.47297C162.631 2.0887 162.176 1.78389 161.677 1.57592C161.177 1.36796 160.641 1.26092 160.1 1.26092Z" fill="#3F3D56"/>
<path d="M158.695 8.57324H11.803V91.7963H158.695V8.57324Z" fill="white"/>
<path d="M85.1233 6.30453C85.9554 6.30453 86.6299 5.62709 86.6299 4.79143C86.6299 3.95576 85.9554 3.27832 85.1233 3.27832C84.2912 3.27832 83.6167 3.95576 83.6167 4.79143C83.6167 5.62709 84.2912 6.30453 85.1233 6.30453Z" fill="#6C63FF"/>
<path d="M55.4951 39.6306H52.0058C51.7745 39.6303 51.5527 39.5379 51.3892 39.3737C51.2257 39.2095 51.1337 38.9868 51.1334 38.7545V35.2501C51.1337 35.0178 51.2257 34.7951 51.3892 34.6309C51.5527 34.4667 51.7745 34.3743 52.0058 34.374H55.4951C55.7264 34.3743 55.9481 34.4667 56.1116 34.6309C56.2752 34.7951 56.3672 35.0178 56.3674 35.2501V38.7545C56.3672 38.9868 56.2752 39.2095 56.1116 39.3737C55.9481 39.5379 55.7264 39.6303 55.4951 39.6306ZM52.0058 34.9581C51.9287 34.9582 51.8548 34.989 51.8003 35.0437C51.7457 35.0985 51.7151 35.1727 51.715 35.2501V38.7545C51.7151 38.8319 51.7457 38.9061 51.8003 38.9609C51.8548 39.0156 51.9287 39.0464 52.0058 39.0465H55.4951C55.5722 39.0464 55.6461 39.0156 55.7006 38.9609C55.7551 38.9061 55.7858 38.8319 55.7859 38.7545V35.2501C55.7858 35.1727 55.7551 35.0985 55.7006 35.0437C55.6461 34.989 55.5722 34.9582 55.4951 34.9581H52.0058Z" fill="#3F3D56"/>
<path d="M117.721 39.0469H51.4242V39.6309H117.721V39.0469Z" fill="#3F3D56"/>
<path d="M115.977 55.1084H100.565V59.7809H115.977V55.1084Z" fill="#01A05D"/>
<path d="M117.14 58.613H102.892C102.66 58.6128 102.439 58.5204 102.275 58.3561C102.112 58.1919 102.02 57.9692 102.019 57.7369V54.2325C102.02 54.0003 102.112 53.7776 102.275 53.6133C102.439 53.4491 102.66 53.3567 102.892 53.3564H117.14C117.371 53.3567 117.593 53.4491 117.756 53.6133C117.92 53.7776 118.012 54.0003 118.012 54.2325V57.7369C118.012 57.9692 117.92 58.1919 117.756 58.3561C117.593 58.5204 117.371 58.6128 117.14 58.613ZM102.892 53.9405C102.815 53.9406 102.741 53.9714 102.686 54.0262C102.632 54.0809 102.601 54.1551 102.601 54.2325V57.7369C102.601 57.8143 102.632 57.8886 102.686 57.9433C102.741 57.998 102.815 58.0288 102.892 58.0289H117.14C117.217 58.0288 117.291 57.998 117.345 57.9433C117.4 57.8886 117.43 57.8143 117.431 57.7369V54.2325C117.43 54.1551 117.4 54.0809 117.345 54.0262C117.291 53.9714 117.217 53.9406 117.14 53.9405H102.892Z" fill="#3F3D56"/>
<path d="M233.741 60.3652H204.664V80.8074H233.741V60.3652Z" fill="#80D0AE"/>
<path d="M236.649 79.2011H208.734C208.426 79.2008 208.13 79.0776 207.912 78.8586C207.694 78.6396 207.572 78.3427 207.571 78.033V58.7589C207.572 58.4492 207.694 58.1523 207.912 57.9333C208.13 57.7143 208.426 57.5912 208.734 57.5908H236.649C236.957 57.5911 237.253 57.7143 237.471 57.9333C237.689 58.1523 237.812 58.4492 237.812 58.7589V78.033C237.812 78.3427 237.689 78.6396 237.471 78.8586C237.253 79.0776 236.957 79.2008 236.649 79.2011ZM208.734 58.7589V78.033H236.65L236.649 58.7589H208.734Z" fill="#3F3D56"/>
<path d="M233.45 58.0288H232.287C232.287 55.4729 231.276 53.0217 229.477 51.2144C227.677 49.4071 225.237 48.3918 222.692 48.3918C220.147 48.3918 217.706 49.4071 215.907 51.2144C214.107 53.0217 213.096 55.4729 213.096 58.0288H211.933C211.933 55.1631 213.066 52.4147 215.084 50.3884C217.102 48.362 219.838 47.2236 222.692 47.2236C225.545 47.2236 228.282 48.362 230.299 50.3884C232.317 52.4147 233.45 55.1631 233.45 58.0288Z" fill="#3F3D56"/>
<path d="M225.6 66.0595C225.6 65.5509 225.468 65.0511 225.218 64.6093C224.967 64.1676 224.605 63.7993 224.169 63.5409C223.733 63.2825 223.237 63.1429 222.731 63.136C222.225 63.1291 221.726 63.2551 221.283 63.5015C220.84 63.748 220.469 64.1063 220.206 64.541C219.943 64.9758 219.798 65.4719 219.785 65.9802C219.772 66.4886 219.891 66.9916 220.131 67.4395C220.371 67.8873 220.723 68.2645 221.152 68.5337V71.6682C221.152 71.8712 221.192 72.0723 221.27 72.2598C221.347 72.4474 221.46 72.6178 221.603 72.7614C221.746 72.905 221.916 73.0189 222.103 73.0965C222.289 73.1742 222.49 73.2142 222.692 73.2142C223.1 73.2142 223.492 73.0513 223.78 72.7614C224.069 72.4715 224.231 72.0782 224.231 71.6682V68.5337C224.65 68.272 224.995 67.9075 225.234 67.4746C225.474 67.0417 225.599 66.5547 225.6 66.0595Z" fill="#3F3D56"/>
<path d="M87.3352 164.328H82.6827V164.912H87.3352V164.328Z" fill="#3F3D56"/>
<path d="M93.7323 164.328H89.0798V164.912H93.7323V164.328Z" fill="#3F3D56"/>
<path d="M100.129 164.328H95.4769V164.912H100.129V164.328Z" fill="#3F3D56"/>
<path d="M106.526 164.328H101.874V164.912H106.526V164.328Z" fill="#3F3D56"/>
<path d="M112.924 164.328H108.271V164.912H112.924V164.328Z" fill="#3F3D56"/>
<path d="M172.678 197.036H36.3039C35.9955 197.035 35.6998 196.912 35.4818 196.693C35.2637 196.474 35.1411 196.177 35.1407 195.867V129.284C35.1411 128.975 35.2637 128.678 35.4818 128.459C35.6998 128.24 35.9955 128.117 36.3039 128.116H172.678C172.986 128.117 173.282 128.24 173.5 128.459C173.718 128.678 173.841 128.975 173.841 129.284V195.867C173.841 196.177 173.718 196.474 173.5 196.693C173.282 196.912 172.986 197.035 172.678 197.036ZM36.3039 129.284V195.867H172.679L172.678 129.284H36.3039Z" fill="#3F3D56"/>
<path d="M42.4102 139.213C43.3737 139.213 44.1548 138.429 44.1548 137.461C44.1548 136.493 43.3737 135.709 42.4102 135.709C41.4466 135.709 40.6655 136.493 40.6655 137.461C40.6655 138.429 41.4466 139.213 42.4102 139.213Z" fill="#3F3D56"/>
<path d="M48.5165 139.213C49.4801 139.213 50.2612 138.429 50.2612 137.461C50.2612 136.493 49.4801 135.709 48.5165 135.709C47.553 135.709 46.7719 136.493 46.7719 137.461C46.7719 138.429 47.553 139.213 48.5165 139.213Z" fill="#3F3D56"/>
<path d="M54.6228 139.213C55.5864 139.213 56.3675 138.429 56.3675 137.461C56.3675 136.493 55.5864 135.709 54.6228 135.709C53.6593 135.709 52.8782 136.493 52.8782 137.461C52.8782 138.429 53.6593 139.213 54.6228 139.213Z" fill="#3F3D56"/>
<path d="M117.431 168.417H78.1757C77.9444 168.416 77.7227 168.324 77.5591 168.16C77.3956 167.995 77.3036 167.773 77.3033 167.541V157.611C77.3036 157.379 77.3956 157.156 77.5591 156.992C77.7227 156.828 77.9444 156.736 78.1757 156.735H117.431C117.662 156.736 117.884 156.828 118.047 156.992C118.211 157.156 118.303 157.379 118.303 157.611V167.541C118.303 167.773 118.211 167.995 118.047 168.16C117.884 168.324 117.662 168.416 117.431 168.417ZM78.1757 157.319C78.0986 157.319 78.0247 157.35 77.9701 157.405C77.9156 157.46 77.885 157.534 77.8849 157.611V167.541C77.885 167.618 77.9156 167.692 77.9701 167.747C78.0247 167.802 78.0986 167.832 78.1757 167.833H117.431C117.508 167.832 117.582 167.802 117.636 167.747C117.691 167.692 117.721 167.618 117.721 167.541V157.611C117.721 157.534 117.691 157.46 117.636 157.405C117.582 157.35 117.508 157.319 117.431 157.319H78.1757Z" fill="#3F3D56"/>
<path d="M127.317 168.708C130.208 168.708 132.551 166.355 132.551 163.452C132.551 160.549 130.208 158.195 127.317 158.195C124.426 158.195 122.083 160.549 122.083 163.452C122.083 166.355 124.426 168.708 127.317 168.708Z" fill="#80D0AE"/>
<path d="M129.062 168.125C127.969 168.125 126.901 167.799 125.992 167.189C125.084 166.58 124.376 165.713 123.957 164.699C123.539 163.685 123.43 162.57 123.643 161.493C123.856 160.417 124.382 159.428 125.155 158.652C125.928 157.877 126.912 157.348 127.984 157.134C129.056 156.92 130.166 157.03 131.176 157.45C132.185 157.87 133.048 158.581 133.655 159.493C134.262 160.406 134.586 161.479 134.586 162.576C134.585 164.047 134.002 165.457 132.966 166.498C131.931 167.538 130.526 168.123 129.062 168.125ZM129.062 157.611C128.084 157.611 127.128 157.903 126.315 158.448C125.502 158.994 124.869 159.769 124.495 160.676C124.121 161.583 124.023 162.581 124.213 163.544C124.404 164.507 124.875 165.392 125.566 166.086C126.258 166.781 127.138 167.254 128.097 167.445C129.056 167.637 130.05 167.538 130.953 167.163C131.857 166.787 132.629 166.15 133.172 165.334C133.715 164.518 134.005 163.558 134.005 162.576C134.003 161.26 133.482 159.998 132.555 159.067C131.629 158.136 130.372 157.613 129.062 157.611Z" fill="#01A05D"/>
<path d="M129.139 164.648L126.324 161.82L127.146 160.995L128.984 162.84L134.111 155.522L135.062 156.195L129.139 164.648Z" fill="#3F3D56"/>
<path opacity="0.1" d="M126.128 91.796H11.803V14.8779L126.128 91.796Z" fill="black"/>
<path d="M168.345 90.2821H154.009V89.2447C154.009 89.2177 154.003 89.191 153.993 89.166C153.983 89.1411 153.968 89.1184 153.949 89.0993C153.93 89.0802 153.907 89.0651 153.882 89.0547C153.857 89.0444 153.831 89.0391 153.804 89.0391H148.889C148.862 89.0391 148.835 89.0444 148.81 89.0547C148.785 89.0651 148.763 89.0802 148.744 89.0993C148.725 89.1184 148.71 89.1411 148.699 89.166C148.689 89.191 148.684 89.2177 148.684 89.2447V90.2821H145.612V89.2447C145.612 89.2177 145.607 89.191 145.596 89.166C145.586 89.1411 145.571 89.1184 145.552 89.0993C145.533 89.0802 145.51 89.0651 145.485 89.0547C145.461 89.0444 145.434 89.0391 145.407 89.0391H140.492C140.465 89.0391 140.438 89.0444 140.414 89.0547C140.389 89.0651 140.366 89.0802 140.347 89.0993C140.328 89.1184 140.313 89.1411 140.303 89.166C140.292 89.191 140.287 89.2177 140.287 89.2447V90.2821H137.215V89.2447C137.215 89.2177 137.21 89.191 137.2 89.166C137.189 89.1411 137.174 89.1184 137.155 89.0993C137.136 89.0802 137.114 89.0651 137.089 89.0547C137.064 89.0444 137.037 89.0391 137.01 89.0391H132.095C132.068 89.0391 132.042 89.0444 132.017 89.0547C131.992 89.0651 131.969 89.0802 131.95 89.0993C131.931 89.1184 131.916 89.1411 131.906 89.166C131.896 89.191 131.89 89.2177 131.89 89.2447V90.2821H128.818V89.2447C128.818 89.2177 128.813 89.191 128.803 89.166C128.792 89.1411 128.777 89.1184 128.758 89.0993C128.739 89.0802 128.717 89.0651 128.692 89.0547C128.667 89.0444 128.64 89.0391 128.614 89.0391H123.698C123.672 89.0391 123.645 89.0444 123.62 89.0547C123.595 89.0651 123.573 89.0802 123.554 89.0993C123.535 89.1184 123.519 89.1411 123.509 89.166C123.499 89.191 123.494 89.2177 123.494 89.2447V90.2821H120.422V89.2447C120.422 89.2177 120.416 89.191 120.406 89.166C120.396 89.1411 120.381 89.1184 120.362 89.0993C120.343 89.0802 120.32 89.0651 120.295 89.0547C120.27 89.0444 120.244 89.0391 120.217 89.0391H115.302C115.275 89.0391 115.248 89.0444 115.223 89.0547C115.198 89.0651 115.176 89.0802 115.157 89.0993C115.138 89.1184 115.123 89.1411 115.112 89.166C115.102 89.191 115.097 89.2177 115.097 89.2447V90.2821H112.025V89.2447C112.025 89.2177 112.02 89.191 112.009 89.166C111.999 89.1411 111.984 89.1184 111.965 89.0993C111.946 89.0802 111.923 89.0651 111.898 89.0547C111.874 89.0444 111.847 89.0391 111.82 89.0391H106.905C106.878 89.0391 106.851 89.0444 106.827 89.0547C106.802 89.0651 106.779 89.0802 106.76 89.0993C106.741 89.1184 106.726 89.1411 106.716 89.166C106.705 89.191 106.7 89.2177 106.7 89.2447V90.2821H103.628V89.2447C103.628 89.2177 103.623 89.191 103.613 89.166C103.602 89.1411 103.587 89.1184 103.568 89.0993C103.549 89.0802 103.527 89.0651 103.502 89.0547C103.477 89.0444 103.45 89.0391 103.423 89.0391H64.9212C64.8943 89.0391 64.8677 89.0444 64.8428 89.0547C64.818 89.0651 64.7954 89.0802 64.7764 89.0993C64.7574 89.1184 64.7423 89.1411 64.732 89.166C64.7217 89.191 64.7164 89.2177 64.7164 89.2447V90.2821H61.6444V89.2447C61.6444 89.2177 61.6391 89.191 61.6288 89.166C61.6185 89.1411 61.6034 89.1184 61.5844 89.0993C61.5654 89.0802 61.5428 89.0651 61.518 89.0547C61.4931 89.0444 61.4665 89.0391 61.4396 89.0391H56.5244C56.4975 89.0391 56.4709 89.0444 56.4461 89.0547C56.4212 89.0651 56.3986 89.0802 56.3796 89.0993C56.3606 89.1184 56.3455 89.1411 56.3352 89.166C56.3249 89.191 56.3196 89.2177 56.3196 89.2447V90.2821H53.2477V89.2447C53.2477 89.2177 53.2424 89.191 53.2321 89.166C53.2218 89.1411 53.2067 89.1184 53.1877 89.0993C53.1687 89.0802 53.1461 89.0651 53.1212 89.0547C53.0964 89.0444 53.0698 89.0391 53.0429 89.0391H48.1277C48.1008 89.0391 48.0742 89.0444 48.0493 89.0547C48.0245 89.0651 48.0019 89.0802 47.9829 89.0993C47.9639 89.1184 47.9488 89.1411 47.9385 89.166C47.9282 89.191 47.9229 89.2177 47.9229 89.2447V90.2821H44.8509V89.2447C44.8509 89.2177 44.8456 89.191 44.8353 89.166C44.825 89.1411 44.8099 89.1184 44.7909 89.0993C44.7719 89.0802 44.7493 89.0651 44.7245 89.0547C44.6996 89.0444 44.673 89.0391 44.6461 89.0391H39.7309C39.7041 89.0391 39.6774 89.0444 39.6526 89.0547C39.6277 89.0651 39.6052 89.0802 39.5861 89.0993C39.5671 89.1184 39.552 89.1411 39.5417 89.166C39.5315 89.191 39.5262 89.2177 39.5262 89.2447V90.2821H36.4542V89.2447C36.4542 89.2177 36.4489 89.191 36.4386 89.166C36.4283 89.1411 36.4132 89.1184 36.3942 89.0993C36.3752 89.0802 36.3526 89.0651 36.3277 89.0547C36.3029 89.0444 36.2763 89.0391 36.2494 89.0391H31.3342C31.3073 89.0391 31.2807 89.0444 31.2558 89.0547C31.231 89.0651 31.2084 89.0802 31.1894 89.0993C31.1704 89.1184 31.1553 89.1411 31.145 89.166C31.1347 89.191 31.1294 89.2177 31.1294 89.2447V90.2821H28.0574V89.2447C28.0574 89.2177 28.0521 89.191 28.0418 89.166C28.0316 89.1411 28.0165 89.1184 27.9974 89.0993C27.9784 89.0802 27.9559 89.0651 27.931 89.0547C27.9062 89.0444 27.8795 89.0391 27.8526 89.0391H22.9375C22.9106 89.0391 22.8839 89.0444 22.8591 89.0547C22.8342 89.0651 22.8117 89.0802 22.7926 89.0993C22.7736 89.1184 22.7585 89.1411 22.7482 89.166C22.738 89.191 22.7327 89.2177 22.7327 89.2447V90.2821H19.6607V89.2447C19.6607 89.2177 19.6554 89.191 19.6451 89.166C19.6348 89.1411 19.6197 89.1184 19.6007 89.0993C19.5817 89.0802 19.5591 89.0651 19.5342 89.0547C19.5094 89.0444 19.4828 89.0391 19.4559 89.0391H14.5407C14.5138 89.0391 14.4872 89.0444 14.4623 89.0547C14.4375 89.0651 14.4149 89.0802 14.3959 89.0993C14.3769 89.1184 14.3618 89.1411 14.3515 89.166C14.3412 89.191 14.3359 89.2177 14.3359 89.2447V90.2821H4.91517C4.2697 90.2821 3.63055 90.4098 3.03421 90.6579C2.43788 90.9059 1.89603 91.2695 1.43962 91.7279C0.983202 92.1863 0.621154 92.7305 0.374144 93.3294C0.127134 93.9283 -3.81853e-07 94.5702 0 95.2185V97.4506C3.08475e-06 98.7598 0.517851 100.015 1.43962 100.941C2.3614 101.867 3.61159 102.387 4.91517 102.387H168.345C168.99 102.387 169.629 102.259 170.225 102.011C170.822 101.763 171.364 101.4 171.82 100.941C172.276 100.483 172.639 99.9386 172.886 99.3397C173.133 98.7407 173.26 98.0988 173.26 97.4506V95.2185C173.26 94.5702 173.133 93.9283 172.886 93.3294C172.639 92.7305 172.276 92.1863 171.82 91.7279C171.364 91.2695 170.822 90.9059 170.225 90.6579C169.629 90.4098 168.99 90.2821 168.345 90.2821Z" fill="#3F3D56"/>
<path d="M123.537 63.5768H46.7719C46.5406 63.5765 46.3189 63.4842 46.1553 63.3199C45.9918 63.1557 45.8998 62.933 45.8995 62.7007V30.5773C45.8998 30.345 45.9918 30.1223 46.1553 29.9581C46.3189 29.7938 46.5406 29.7014 46.7719 29.7012H123.537C123.768 29.7014 123.99 29.7938 124.153 29.9581C124.317 30.1223 124.409 30.345 124.409 30.5773V62.7007C124.409 62.933 124.317 63.1557 124.153 63.3199C123.99 63.4842 123.768 63.5765 123.537 63.5768ZM46.7719 30.2852C46.6948 30.2853 46.6209 30.3161 46.5664 30.3709C46.5119 30.4256 46.4812 30.4998 46.4811 30.5773V62.7007C46.4812 62.7781 46.5119 62.8523 46.5664 62.9071C46.6209 62.9618 46.6948 62.9926 46.7719 62.9927H123.537C123.614 62.9926 123.688 62.9618 123.742 62.9071C123.797 62.8523 123.828 62.7781 123.828 62.7007V30.5773C123.828 30.4998 123.797 30.4256 123.742 30.3709C123.688 30.3161 123.614 30.2853 123.537 30.2852H46.7719Z" fill="#3F3D56"/>
<path d="M55.4951 48.3913H52.0058C51.7745 48.3911 51.5527 48.2987 51.3892 48.1345C51.2257 47.9702 51.1337 47.7475 51.1334 47.5152V44.0109C51.1337 43.7786 51.2257 43.5559 51.3892 43.3916C51.5527 43.2274 51.7745 43.135 52.0058 43.1348H55.4951C55.7264 43.135 55.9481 43.2274 56.1116 43.3916C56.2752 43.5559 56.3672 43.7786 56.3674 44.0109V47.5152C56.3672 47.7475 56.2752 47.9702 56.1116 48.1345C55.9481 48.2987 55.7264 48.3911 55.4951 48.3913ZM52.0058 43.7188C51.9287 43.7189 51.8548 43.7497 51.8003 43.8045C51.7457 43.8592 51.7151 43.9334 51.715 44.0109V47.5152C51.7151 47.5927 51.7457 47.6669 51.8003 47.7216C51.8548 47.7764 51.9287 47.8072 52.0058 47.8073H55.4951C55.5722 47.8072 55.6461 47.7764 55.7006 47.7216C55.7551 47.6669 55.7858 47.5927 55.7859 47.5152V44.0109C55.7858 43.9334 55.7551 43.8592 55.7006 43.8045C55.6461 43.7497 55.5722 43.7189 55.4951 43.7188H52.0058Z" fill="#3F3D56"/>
<path d="M117.721 47.8076H51.4242V48.3917H117.721V47.8076Z" fill="#3F3D56"/>
<path d="M290.152 78.7627H77.0126V79.3468H290.152V78.7627Z" fill="#3F3D56"/>
<path d="M77.0126 82.8517C79.2609 82.8517 81.0835 81.0212 81.0835 78.7632C81.0835 76.5053 79.2609 74.6748 77.0126 74.6748C74.7644 74.6748 72.9418 76.5053 72.9418 78.7632C72.9418 81.0212 74.7644 82.8517 77.0126 82.8517Z" fill="#3F3D56"/>
<path d="M290.152 82.5595C291.918 82.5595 293.351 81.1212 293.351 79.3471C293.351 77.573 291.918 76.1348 290.152 76.1348C288.385 76.1348 286.953 77.573 286.953 79.3471C286.953 81.1212 288.385 82.5595 290.152 82.5595Z" fill="#3F3D56"/>
<path d="M305.854 147.099C307.62 147.099 309.052 145.66 309.052 143.886C309.052 142.112 307.62 140.674 305.854 140.674C304.087 140.674 302.655 142.112 302.655 143.886C302.655 145.66 304.087 147.099 305.854 147.099Z" fill="#3F3D56"/>
<path d="M93.5868 147.099C95.3534 147.099 96.7854 145.66 96.7854 143.886C96.7854 142.112 95.3534 140.674 93.5868 140.674C91.8203 140.674 90.3883 142.112 90.3883 143.886C90.3883 145.66 91.8203 147.099 93.5868 147.099Z" fill="#3F3D56"/>
</g>
<defs>
<clipPath id="clip0_820_2771">
<rect width="320" height="202" fill="white"/>
</clipPath>
</defs>
</svg>
