<svg width="150" height="139" viewBox="0 0 150 139" fill="none" xmlns="http://www.w3.org/2000/svg">
<g clip-path="url(#clip0_380_32)">
<path d="M145.282 119.761H4.56593C3.31457 119.761 2.11445 119.264 1.22961 118.379C0.344758 117.494 -0.152344 116.294 -0.152344 115.043C50.8571 109.114 100.908 109.114 150 115.043C150 116.294 149.503 117.494 148.618 118.379C147.733 119.264 146.533 119.761 145.282 119.761Z" fill="#2F2E41"/>
<path d="M150 115.32L-0.152344 115.043L17.2498 85.7616L17.333 85.6229V21.0907C17.333 20.3074 17.4872 19.5318 17.7869 18.8081C18.0867 18.0844 18.526 17.4269 19.0799 16.873C19.6337 16.3192 20.2913 15.8798 21.0149 15.5801C21.7386 15.2804 22.5142 15.1262 23.2975 15.1262H125.717C126.501 15.1262 127.276 15.2804 128 15.5801C128.724 15.8798 129.381 16.3192 129.935 16.873C130.489 17.4269 130.928 18.0844 131.228 18.8081C131.528 19.5318 131.682 20.3074 131.682 21.0907V86.0669L150 115.32Z" fill="#3F3D56"/>
<path d="M23.1616 19.2894C22.6465 19.29 22.1526 19.4949 21.7884 19.8591C21.4242 20.2233 21.2193 20.7172 21.2188 21.2322V80.072C21.2194 80.5871 21.4242 81.0809 21.7884 81.4451C22.1527 81.8093 22.6465 82.0142 23.1616 82.0148H126.686C127.201 82.0142 127.695 81.8093 128.059 81.4451C128.423 81.0809 128.628 80.5871 128.629 80.072V21.2322C128.628 20.7172 128.424 20.2234 128.059 19.8591C127.695 19.4949 127.201 19.29 126.686 19.2894H23.1616Z" fill="white"/>
<path d="M23.5955 89.7861C23.4363 89.7864 23.2805 89.8322 23.1465 89.918C23.0125 90.0039 22.9058 90.1263 22.839 90.2708L17.4769 101.928C17.4185 102.055 17.393 102.194 17.4026 102.333C17.4123 102.473 17.4568 102.607 17.5322 102.725C17.6075 102.842 17.7112 102.939 17.8337 103.006C17.9562 103.073 18.0936 103.108 18.2332 103.108H130.996C131.138 103.108 131.278 103.072 131.402 103.003C131.526 102.934 131.63 102.834 131.704 102.713C131.779 102.593 131.821 102.455 131.828 102.313C131.834 102.171 131.804 102.03 131.741 101.903L125.912 90.2464C125.843 90.1078 125.737 89.9912 125.606 89.9099C125.474 89.8286 125.322 89.7857 125.168 89.7861H23.5955Z" fill="#2F2E41"/>
<path d="M74.5075 18.3181C75.1973 18.3181 75.7565 17.7589 75.7565 17.0691C75.7565 16.3794 75.1973 15.8202 74.5075 15.8202C73.8177 15.8202 73.2585 16.3794 73.2585 17.0691C73.2585 17.7589 73.8177 18.3181 74.5075 18.3181Z" fill="white"/>
<path d="M63.4237 105.329C63.2407 105.329 63.0628 105.389 62.9175 105.501C62.7723 105.612 62.6676 105.768 62.6198 105.945L61.2748 110.941C61.2415 111.064 61.2371 111.193 61.2619 111.319C61.2867 111.444 61.3401 111.562 61.4178 111.664C61.4955 111.765 61.5956 111.847 61.7102 111.904C61.8248 111.96 61.9509 111.99 62.0787 111.99H87.6583C87.7911 111.99 87.9219 111.958 88.0398 111.897C88.1578 111.836 88.2595 111.748 88.3365 111.64C88.4135 111.532 88.4635 111.407 88.4823 111.275C88.5012 111.144 88.4883 111.01 88.4449 110.885L86.7156 105.889C86.6589 105.725 86.5527 105.583 86.4117 105.483C86.2707 105.383 86.1019 105.329 85.9288 105.329H63.4237Z" fill="#2F2E41"/>
<path d="M131.682 84.6515V85.7616H17.2498L17.3359 85.623V84.6515H131.682Z" fill="#2F2E41"/>
<path d="M128.49 38.8564C139.22 38.8564 147.918 30.1581 147.918 19.4282C147.918 8.69831 139.22 0 128.49 0C117.76 0 109.062 8.69831 109.062 19.4282C109.062 30.1581 117.76 38.8564 128.49 38.8564Z" fill="#80CFAE"/>
<path d="M136.539 27.8933H120.441C120.147 27.893 119.865 27.776 119.657 27.5679C119.448 27.3597 119.331 27.0775 119.331 26.7832V17.069C119.331 16.7747 119.448 16.4925 119.657 16.2844C119.865 16.0762 120.147 15.9592 120.441 15.9589H136.539C136.833 15.9592 137.115 16.0762 137.324 16.2844C137.532 16.4925 137.649 16.7747 137.649 17.069V26.7831C137.649 27.0775 137.532 27.3597 137.324 27.5679C137.115 27.776 136.833 27.893 136.539 27.8933ZM120.441 17.0691V26.7832H136.54L136.539 17.069L120.441 17.0691Z" fill="white"/>
<path d="M133.486 17.069H123.494V12.6283C123.494 9.41187 125.595 7.07739 128.49 7.07739C131.385 7.07739 133.486 9.41187 133.486 12.6283L133.486 17.069ZM124.605 15.9589H132.376V12.6283C132.376 10.0137 130.778 8.18758 128.49 8.18758C126.202 8.18758 124.605 10.0137 124.605 12.6283L124.605 15.9589Z" fill="white"/>
<path d="M128.49 22.7587C129.103 22.7587 129.6 22.2617 129.6 21.6485C129.6 21.0354 129.103 20.5383 128.49 20.5383C127.877 20.5383 127.38 21.0354 127.38 21.6485C127.38 22.2617 127.877 22.7587 128.49 22.7587Z" fill="white"/>
<path d="M114.928 62.057H34.9201C34.5273 62.0566 34.1507 61.9003 33.8729 61.6226C33.5952 61.3448 33.4389 60.9682 33.4385 60.5754V40.7289C33.4389 40.3361 33.5952 39.9595 33.8729 39.6818C34.1507 39.404 34.5273 39.2478 34.9201 39.2473H114.928C115.32 39.2478 115.697 39.404 115.975 39.6818C116.253 39.9595 116.409 40.3361 116.409 40.7289V60.5754C116.409 60.9682 116.253 61.3448 115.975 61.6226C115.697 61.9003 115.32 62.0566 114.928 62.057ZM34.9201 39.84C34.6844 39.8402 34.4584 39.934 34.2918 40.1006C34.1251 40.2673 34.0314 40.4932 34.0311 40.7289V60.5754C34.0314 60.8111 34.1251 61.0371 34.2918 61.2037C34.4584 61.3704 34.6844 61.4641 34.9201 61.4644H114.928C115.163 61.4641 115.389 61.3704 115.556 61.2037C115.723 61.0371 115.816 60.8111 115.817 60.5754V40.7289C115.816 40.4932 115.723 40.2673 115.556 40.1006C115.389 39.934 115.163 39.8402 114.928 39.84L34.9201 39.84Z" fill="#E6E6E6"/>
<path d="M47.3515 55.926C50.6847 55.926 53.3868 53.2239 53.3868 49.8907C53.3868 46.5575 50.6847 43.8553 47.3515 43.8553C44.0183 43.8553 41.3162 46.5575 41.3162 49.8907C41.3162 53.2239 44.0183 55.926 47.3515 55.926Z" fill="#E6E6E6"/>
<path d="M61.2904 45.8671C61.1582 45.8669 61.0272 45.8927 60.905 45.9432C60.7828 45.9936 60.6717 46.0677 60.5781 46.1611C60.4846 46.2545 60.4103 46.3655 60.3597 46.4877C60.309 46.6098 60.283 46.7407 60.283 46.873C60.283 47.0052 60.309 47.1361 60.3597 47.2583C60.4103 47.3804 60.4846 47.4914 60.5781 47.5848C60.6717 47.6782 60.7828 47.7523 60.905 47.8027C61.0272 47.8532 61.1582 47.8791 61.2904 47.8788H108.711C108.978 47.8788 109.234 47.7729 109.422 47.5842C109.611 47.3956 109.717 47.1397 109.717 46.873C109.717 46.6062 109.611 46.3503 109.422 46.1617C109.234 45.973 108.978 45.8671 108.711 45.8671H61.2904Z" fill="#E6E6E6"/>
<path d="M61.2903 51.9023C61.0235 51.9023 60.7677 52.0083 60.579 52.197C60.3904 52.3856 60.2844 52.6415 60.2844 52.9082C60.2844 53.175 60.3904 53.4309 60.579 53.6195C60.7677 53.8081 61.0235 53.9141 61.2903 53.9141H81.6955C81.9622 53.9141 82.2181 53.8081 82.4067 53.6195C82.5954 53.4309 82.7013 53.175 82.7013 52.9082C82.7013 52.6415 82.5954 52.3856 82.4067 52.197C82.2181 52.0083 81.9622 51.9023 81.6955 51.9023H61.2903Z" fill="#E6E6E6"/>
</g>
<defs>
<clipPath id="clip0_380_32">
<rect width="150" height="138.717" fill="white"/>
</clipPath>
</defs>
</svg>
