<svg width="959" height="867" viewBox="0 0 959 867" fill="none" xmlns="http://www.w3.org/2000/svg">
<g clip-path="url(#clip0_318_963)">
<path d="M271.252 267.767C271.287 287.34 277.125 306.464 288.028 322.719C298.931 338.974 314.41 351.631 332.507 359.09C350.603 366.548 370.505 368.472 389.695 364.62C408.886 360.767 426.503 351.31 440.319 337.446C454.134 323.581 463.529 305.93 467.313 286.726C471.098 267.522 469.103 247.627 461.58 229.557C454.058 211.487 441.346 196.054 425.052 185.208C408.758 174.363 389.614 168.593 370.041 168.627C357.035 168.617 344.156 171.176 332.142 176.159C320.129 181.142 309.219 188.449 300.039 197.662C290.859 206.875 283.59 217.811 278.649 229.842C273.709 241.873 271.195 254.761 271.252 267.767Z" fill="#E8FFF5"/>
<path d="M106.544 325.455L92.6292 298.886C105.107 283.817 146.047 265.543 146.047 265.543L201.456 215.109C202.047 212.859 203.219 210.804 204.856 209.151C206.492 207.498 208.536 206.305 210.78 205.693C213.024 205.081 215.39 205.07 217.639 205.663C219.889 206.256 221.942 207.431 223.593 209.07C225.244 210.708 226.435 212.753 227.044 214.998C227.654 217.243 227.661 219.609 227.066 221.857C226.47 224.106 225.293 226.158 223.652 227.807C222.012 229.456 219.965 230.644 217.72 231.251L157.859 303.045L106.544 325.455Z" fill="#9E616A"/>
<path d="M113.285 323.622L93.6366 329.878C79.3487 334.427 63.952 334.085 49.8807 328.904C45.6242 327.319 41.8957 324.576 39.1167 320.983C36.3377 317.39 34.6188 313.092 34.1544 308.574C33.5661 302.445 35.327 296.322 39.081 291.441C42.835 286.561 48.3021 283.289 54.3769 282.285C72.8026 279.257 96.5443 277.764 105.014 287.843L105.1 287.945L113.285 323.622Z" fill="white"/>
<path d="M254.61 404.962C199.954 404.962 155.646 360.654 155.646 305.998C155.646 251.341 199.954 207.033 254.61 207.033C309.267 207.033 353.575 251.341 353.575 305.998C353.575 360.654 309.267 404.962 254.61 404.962Z" fill="white"/>
<path d="M294.999 267.288C296.358 274.586 298.585 281.695 301.634 288.463C319.091 325.393 269.376 313.356 251.609 313.356C232.184 313.356 213.598 323.571 216.437 278.183C217.649 258.796 232.184 243.011 251.609 243.011C268.201 243.011 291.53 250.386 294.999 267.288Z" fill="#2F2E41"/>
<path d="M254.519 313.347C238.734 313.347 225.937 300.551 225.937 284.766C225.937 268.981 238.734 256.184 254.519 256.184C270.304 256.184 283.101 268.981 283.101 284.766C283.101 300.551 270.304 313.347 254.519 313.347Z" fill="#FFB6B6"/>
<path d="M273.929 255.631C268.921 252.577 263.184 250.926 257.319 250.848C251.453 250.771 245.675 252.271 240.588 255.191C235.501 258.111 231.292 262.345 228.401 267.448C225.51 272.552 224.043 278.339 224.154 284.203C238.717 287.86 254.018 290.658 269.549 285.078L273.217 276.101L275.379 285.085C280.109 287.018 284.851 288.654 289.593 285.066C289.787 279.218 288.442 273.421 285.693 268.256C282.944 263.09 278.888 258.737 273.929 255.631Z" fill="#2F2E41"/>
<path d="M177.661 371.803C194.806 391.312 218.935 403.295 244.84 405.168C270.744 407.04 296.346 398.65 316.118 381.809L307.63 358.124C305.712 353.917 302.684 350.312 298.873 347.694C295.062 345.077 290.61 343.546 285.994 343.267L280.594 342.935L267.718 331.83C267.718 331.83 233.023 330.591 233.537 329.998L212.521 342.639L212.539 342.552L204.277 343.058C199.662 343.336 195.209 344.866 191.398 347.483C187.586 350.101 184.559 353.707 182.642 357.914L177.661 371.803Z" fill="#CCECDF"/>
<path d="M263.293 779.594L265.752 745.392C281.86 737.339 299.691 733.341 317.695 733.743C292.365 753.322 294.394 792.454 276.852 819.234C271.317 827.545 263.982 834.503 255.392 839.594C246.802 844.685 237.177 847.777 227.229 848.642L206.148 860.77C203.737 844.832 204.81 828.561 209.292 813.077C213.775 797.594 221.561 783.266 232.114 771.081C238.101 764.304 244.919 758.308 252.405 753.235C257.013 766.464 263.293 779.594 263.293 779.594Z" fill="#FFE3AA"/>
<path d="M904.23 173.369L906.689 139.167C922.797 131.115 940.628 127.116 958.632 127.519C933.302 147.097 935.331 186.229 917.789 213.009C912.254 221.32 904.919 228.279 896.329 233.369C887.739 238.46 878.114 241.553 868.166 242.418L847.085 254.545C844.674 238.607 845.747 222.336 850.229 206.852C854.712 191.369 862.498 177.041 873.051 164.856C879.038 158.079 885.856 152.084 893.342 147.01C897.95 160.239 904.23 173.369 904.23 173.369Z" fill="#F2F2F2"/>
<path d="M171.075 849.207L187.519 849.205L195.342 785.782H171.073L171.075 849.207Z" fill="#9E616A"/>
<path d="M166.882 865.146L219.902 865.144V864.473C219.902 859 217.728 853.751 213.857 849.881C209.987 846.011 204.739 843.837 199.266 843.837H199.264L189.579 836.489L171.51 843.838L166.881 843.838L166.882 865.146Z" fill="#80D0AE"/>
<path d="M26.1558 849.207L42.5982 849.205L50.4209 785.782H26.152L26.1558 849.207Z" fill="#9E616A"/>
<path d="M21.9616 865.146L74.9814 865.144V864.473C74.9811 859 72.8067 853.751 68.9367 849.881C65.0666 846.011 59.8177 843.837 54.3446 843.837H54.3434L44.6586 836.489L26.5889 843.838L21.9606 843.838L21.9616 865.146Z" fill="#80D0AE"/>
<path d="M51.1644 509.756L37.3344 641.143C37.3344 641.143 18.9232 772.699 22.3808 790.851C25.8384 809.003 21.5164 811.596 21.5164 811.596L53.065 809.349C53.065 809.349 52.2006 798.112 57.3869 792.926C62.5733 787.74 59.98 772.181 59.98 772.181L121.18 558.162L158.348 670.532C158.348 670.532 164.399 794.14 165.263 795.868C166.128 797.597 168.721 820.936 168.721 820.936H200.703C200.703 820.936 196.381 807.105 202.432 802.783C208.483 798.461 213.669 801.919 208.483 794.14C203.296 786.36 201.568 776.852 203.296 772.53C205.025 768.208 205.025 750.92 205.025 750.92C205.025 750.92 202.432 517.536 187.737 509.757C173.043 501.977 51.1644 509.756 51.1644 509.756Z" fill="#BAC8C4"/>
<path d="M116.661 243.732C97.8741 243.732 82.6444 228.502 82.6444 209.715C82.6444 190.929 97.8741 175.699 116.661 175.699C135.448 175.699 150.677 190.929 150.677 209.715C150.677 228.502 135.448 243.732 116.661 243.732Z" fill="#9E616A"/>
<path d="M39.4081 524.077C105.285 537.681 192.586 514.292 192.586 514.292L169.297 413.341L177.577 307.695C178.588 294.776 171.23 282.666 159.782 278.374L143.976 272.454L130.91 253.749L93.5906 254.973L78.6715 274.611L66.8982 280.857L41.3741 294.394L41.2617 294.45V294.506L49.2717 372.202L54.1023 419.048C54.1023 419.048 39.4305 471.736 42.4413 478.724C45.452 485.701 42.8344 482.33 42.1043 486.06C41.3741 489.79 39.1385 490.026 38.8016 497.373C38.4532 504.709 39.4081 524.077 39.4081 524.077Z" fill="#9FBDB1"/>
<path d="M118.316 242.098C112.35 242.037 106.4 241.466 100.531 240.392C94.7206 239.054 81.9011 229.141 78.4072 223.285C75.8115 218.934 74.2535 212.204 73.4034 207.325C72.2556 200.867 72.4768 194.241 74.0527 187.874C75.6286 181.508 78.5241 175.543 82.5517 170.367C84.1043 168.198 86.2141 166.49 88.658 165.422C88.8742 165.343 89.0963 165.275 89.3205 165.217C92.863 164.382 96.0751 162.508 98.5444 159.834C99.0238 159.293 99.5415 158.787 100.094 158.32C102.864 156.102 106.12 154.571 109.595 153.852C115.209 152.504 123.24 154.193 133.463 158.878C138.6 161.232 144.301 160.575 148.695 159.74C148.941 159.699 149.194 159.723 149.428 159.81C149.662 159.897 149.869 160.044 150.029 160.236C151.843 162.029 154.269 163.07 156.818 163.148C158.379 163.257 159.961 165.462 161.869 168.333C162.302 168.984 162.807 169.745 163.174 170.209L163.247 169.338L164.105 170.334C165.455 171.901 166.385 173.783 166.811 175.807C167.237 177.83 167.144 179.928 166.54 181.905C165.937 183.883 164.843 185.675 163.36 187.116C161.878 188.557 160.054 189.599 158.06 190.146C156.479 190.523 154.862 190.738 153.237 190.787C152.251 190.85 151.232 190.916 150.253 191.06C147.108 191.619 144.163 192.985 141.703 195.023C139.244 197.061 137.355 199.702 136.221 202.688C135.954 203.378 135.531 203.998 134.986 204.499C134.441 204.999 133.788 205.368 133.078 205.576C132.367 205.785 131.619 205.827 130.89 205.7C130.16 205.574 129.47 205.281 128.872 204.845C127.877 204.028 126.699 203.464 125.439 203.201C124.179 202.937 122.874 202.983 121.636 203.333C120.559 203.896 119.708 204.812 119.226 205.928C118.643 207.17 117.704 208.211 116.528 208.916C112.517 210.855 112.011 219.889 113.238 227.462C114.421 234.762 116.994 240.087 119.495 240.411C121.421 240.661 121.638 240.804 121.769 241.149L121.886 241.458L121.662 241.738C120.585 242.097 119.444 242.22 118.316 242.098Z" fill="#2F2E41"/>
<path d="M254.61 406.202C274.428 406.202 293.802 400.325 310.28 389.314C326.759 378.304 339.602 362.654 347.186 344.344C354.771 326.034 356.755 305.887 352.889 286.449C349.022 267.011 339.479 249.157 325.465 235.143C311.451 221.129 293.597 211.586 274.159 207.719C254.721 203.853 234.574 205.837 216.264 213.422C197.954 221.006 182.304 233.849 171.294 250.328C160.283 266.806 154.406 286.179 154.406 305.998C154.436 332.564 165.003 358.034 183.788 376.819C202.574 395.605 228.044 406.172 254.61 406.202ZM254.61 208.273C273.938 208.273 292.832 214.005 308.903 224.743C324.974 235.481 337.499 250.744 344.896 268.6C352.292 286.457 354.227 306.106 350.457 325.063C346.686 344.02 337.379 361.432 323.712 375.1C310.045 388.767 292.632 398.074 273.675 401.845C254.718 405.615 235.069 403.68 217.213 396.283C199.356 388.887 184.093 376.361 173.355 360.291C162.617 344.22 156.886 325.326 156.886 305.998C156.915 280.089 167.22 255.249 185.541 236.929C203.861 218.608 228.701 208.303 254.61 208.273Z" fill="#80D0AE"/>
<path d="M600.493 199.168C545.837 199.168 501.529 154.86 501.529 100.204C501.529 45.5473 545.837 1.2395 600.493 1.2395C655.15 1.2395 699.458 45.5473 699.458 100.204C699.458 154.86 655.15 199.168 600.493 199.168Z" fill="white"/>
<path d="M595.913 110.299C578.09 110.299 563.642 95.8508 563.642 78.0283C563.642 60.2058 578.09 45.7578 595.913 45.7578C613.735 45.7578 628.183 60.2058 628.183 78.0283C628.183 95.8508 613.735 110.299 595.913 110.299Z" fill="#FFB8B8"/>
<path d="M567.5 56.7097C567.5 56.7097 559.098 40.6474 577.583 39.1872C577.583 39.1872 593.341 24.8922 609.403 36.5739C609.403 36.5739 618.165 36.5739 622.956 46.4883C622.956 46.4883 629.846 43.8749 631.361 50.8689C631.361 50.8689 636.403 65.471 631.361 78.6129C626.318 91.7548 624.644 93.215 624.644 93.215C624.644 93.215 628.181 76.9066 608.014 75.4464C587.847 73.9862 569.346 61.3524 567.665 77.4147C565.985 93.4769 564.137 86.221 564.137 86.221C564.137 86.221 548.174 63.2807 567.5 56.7097Z" fill="#2F2E41"/>
<path d="M526.068 166.009C543.213 185.518 567.342 197.502 593.247 199.374C619.151 201.246 644.753 192.856 664.525 176.015L656.037 152.33C654.119 148.123 651.092 144.518 647.28 141.9C643.469 139.283 639.017 137.753 634.402 137.473L629.002 137.141L616.125 126.036C616.125 126.036 581.43 124.797 581.945 124.204L560.929 136.845L560.946 136.758L552.685 137.264C548.069 137.542 543.617 139.072 539.805 141.689C535.993 144.307 532.966 147.913 531.049 152.12L526.068 166.009Z" fill="#80D0AE"/>
<path d="M600.493 200.408C620.311 200.408 639.685 194.531 656.163 183.52C672.642 172.51 685.485 156.86 693.069 138.55C700.653 120.24 702.638 100.093 698.771 80.6551C694.905 61.2175 685.361 43.3629 671.348 29.3491C657.334 15.3353 639.479 5.79183 620.042 1.92544C600.604 -1.94095 580.456 0.0434102 562.146 7.6276C543.837 15.2118 528.187 28.0552 517.176 44.5336C506.166 61.0121 500.289 80.3855 500.289 100.204C500.319 126.77 510.886 152.24 529.671 171.025C548.457 189.811 573.926 200.378 600.493 200.408ZM600.493 2.47949C619.821 2.47948 638.715 8.21092 654.786 18.949C670.856 29.6871 683.382 44.9496 690.778 62.8064C698.175 80.6632 700.11 100.312 696.34 119.269C692.569 138.226 683.261 155.639 669.594 169.306C655.927 182.973 638.515 192.28 619.558 196.051C600.601 199.821 580.952 197.886 563.095 190.49C545.239 183.093 529.976 170.567 519.238 154.497C508.5 138.426 502.768 119.532 502.768 100.204C502.798 74.2948 513.103 49.4553 531.424 31.1348C549.744 12.8143 574.584 2.50888 600.493 2.47949Z" fill="#CCECDF"/>
<path d="M831.482 355.373C776.826 355.373 732.518 311.065 732.518 256.409C732.518 201.752 776.826 157.445 831.482 157.445C886.139 157.445 930.447 201.752 930.447 256.409C930.447 311.065 886.139 355.373 831.482 355.373Z" fill="white"/>
<path d="M540.073 481.011C535.981 467.969 526.675 456.008 513.806 451.6C500.935 447.191 482.09 453.907 472.415 463.55C454.716 481.188 450.397 541.783 462.557 560.932C464.975 560.804 473.321 560.709 475.769 560.618L479.231 549.076V560.504C483.131 560.383 487.062 560.3 491.022 560.254C504.302 560.09 517.001 554.783 526.45 545.449C535.898 536.115 541.359 523.482 541.686 510.205C542.003 497.504 541.685 486.15 540.073 481.011Z" fill="#2F2E41"/>
<path d="M495.672 524.233C480.095 524.233 467.468 511.606 467.468 496.029C467.468 480.453 480.095 467.825 495.672 467.825C511.249 467.825 523.876 480.453 523.876 496.029C523.876 511.606 511.249 524.233 495.672 524.233Z" fill="#9E616A"/>
<path d="M520.013 471.259L487.538 454.999C480.899 457.99 475.181 462.704 470.978 468.65C466.774 474.596 464.238 481.559 463.632 488.816L462.822 498.512L476.421 495.05L477.911 482.652L480.22 494.083L486.496 492.486L486.436 473.239L492.716 492.472L515.13 487.323L520.013 471.259Z" fill="#2F2E41"/>
<path d="M420.766 578.694C437.911 598.203 462.04 610.187 487.945 612.059C513.849 613.931 539.451 605.541 559.223 588.701L550.735 565.015C548.817 560.809 545.79 557.203 541.978 554.586C538.167 551.969 533.715 550.438 529.1 550.159L523.7 549.827L510.823 538.721C510.823 538.721 476.128 537.483 476.643 536.889L455.627 549.53L455.644 549.443L447.383 549.949C442.767 550.227 438.315 551.757 434.503 554.375C430.691 556.992 427.664 560.598 425.747 564.806L420.766 578.694Z" fill="#CCECDF"/>
<path d="M494.204 613.408C514.022 613.408 533.396 607.531 549.874 596.52C566.353 585.51 579.196 569.86 586.78 551.55C594.364 533.24 596.349 513.093 592.482 493.655C588.616 474.217 579.072 456.363 565.059 442.349C551.045 428.335 533.19 418.792 513.753 414.925C494.315 411.059 474.167 413.043 455.857 420.628C437.548 428.212 421.898 441.055 410.887 457.534C399.877 474.012 394 493.385 394 513.204C394.03 539.77 404.597 565.24 423.382 584.026C442.168 602.811 467.637 613.378 494.204 613.408ZM494.204 415.48C513.532 415.479 532.426 421.211 548.497 431.949C564.567 442.687 577.093 457.95 584.489 475.806C591.886 493.663 593.821 513.312 590.05 532.269C586.28 551.226 576.972 568.639 563.305 582.306C549.638 595.973 532.226 605.28 513.269 609.051C494.312 612.821 474.663 610.886 456.806 603.49C438.949 596.093 423.687 583.567 412.949 567.497C402.211 551.426 396.479 532.532 396.479 513.204C396.509 487.295 406.814 462.455 425.135 444.135C443.455 425.814 468.295 415.509 494.204 415.48Z" fill="#9FBDB1"/>
<path d="M163.21 357.339L178.192 331.356C197.6 333.822 234.962 358.603 234.962 358.603L307.231 378.377C309.447 377.67 311.811 377.559 314.083 378.056C316.356 378.552 318.457 379.639 320.176 381.206C321.896 382.773 323.171 384.765 323.876 386.982C324.58 389.199 324.688 391.563 324.189 393.835C323.689 396.107 322.6 398.207 321.031 399.924C319.462 401.642 317.468 402.915 315.25 403.617C313.033 404.319 310.669 404.424 308.398 403.922C306.126 403.42 304.027 402.328 302.312 400.757L209.622 388.666L163.21 357.339Z" fill="#9E616A"/>
<path d="M168.368 362.049L134.825 333.953L129.945 311.338C129.003 306.895 129.322 302.277 130.867 298.006C132.412 293.735 135.121 289.981 138.688 287.168C143.548 283.389 149.662 281.595 155.794 282.151C161.926 282.707 167.618 285.571 171.719 290.163C184.146 304.1 198.125 323.348 194.151 335.9L194.111 336.027L168.368 362.049Z" fill="#F2F2F2"/>
<path d="M682.488 459.652H808.525C811.902 459.648 815.141 458.305 817.529 455.916C819.918 453.528 821.261 450.289 821.265 446.912V369.285C821.261 365.907 819.918 362.669 817.529 360.28C815.141 357.892 811.902 356.548 808.525 356.545H682.488C679.11 356.548 675.872 357.892 673.484 360.28C671.095 362.669 669.752 365.907 669.748 369.285V446.912C669.752 450.289 671.095 453.528 673.483 455.916C675.872 458.305 679.11 459.648 682.488 459.652Z" fill="#CCECDF"/>
<path d="M732.564 449.653H799.665C802.829 449.65 805.861 448.391 808.098 446.154C810.335 443.918 811.594 440.885 811.597 437.721V378.475C811.594 375.311 810.335 372.279 808.098 370.042C805.861 367.805 802.829 366.547 799.665 366.543H691.347C688.184 366.547 685.151 367.805 682.914 370.042C680.677 372.279 679.419 375.312 679.416 378.475V396.505C679.432 410.596 685.036 424.105 695 434.069C704.964 444.033 718.473 449.637 732.564 449.653Z" fill="white"/>
<path d="M702.153 398.985H788.86C789.61 398.985 790.329 398.687 790.859 398.157C791.39 397.627 791.688 396.907 791.688 396.157C791.688 395.407 791.39 394.688 790.859 394.158C790.329 393.628 789.61 393.33 788.86 393.33H702.153C701.403 393.33 700.684 393.628 700.153 394.158C699.623 394.688 699.325 395.407 699.325 396.157C699.325 396.907 699.623 397.627 700.153 398.157C700.684 398.687 701.403 398.985 702.153 398.985Z" fill="#CCECDF"/>
<path d="M775.297 410.159H788.86C789.61 410.159 790.329 409.861 790.859 409.331C791.39 408.801 791.688 408.081 791.688 407.331C791.688 406.581 791.39 405.862 790.859 405.332C790.329 404.801 789.61 404.503 788.86 404.503H775.297C774.547 404.503 773.827 404.801 773.297 405.332C772.767 405.862 772.469 406.581 772.469 407.331C772.469 408.081 772.767 408.801 773.297 409.331C773.827 409.861 774.547 410.159 775.297 410.159Z" fill="#6C63FF"/>
<path d="M751.275 421.333H788.86C789.609 421.332 790.327 421.033 790.856 420.503C791.385 419.973 791.682 419.254 791.682 418.505C791.682 417.756 791.385 417.038 790.856 416.508C790.327 415.978 789.609 415.679 788.86 415.677H751.275C750.526 415.679 749.808 415.978 749.279 416.508C748.75 417.038 748.452 417.756 748.452 418.505C748.452 419.254 748.75 419.973 749.279 420.503C749.808 421.033 750.526 421.332 751.275 421.333Z" fill="#6C63FF"/>
<path d="M825.663 381.66C810.938 381.66 799.002 369.723 799.002 354.998C799.002 340.274 810.938 328.337 825.663 328.337C840.388 328.337 852.325 340.274 852.325 354.998C852.325 369.723 840.388 381.66 825.663 381.66Z" fill="#3F3D56"/>
<path d="M355.201 107.571H481.238C484.615 107.567 487.854 106.223 490.242 103.835C492.631 101.446 493.974 98.2081 493.978 94.8303V17.2036C493.974 13.8258 492.631 10.5875 490.242 8.19906C487.854 5.81061 484.615 4.46709 481.238 4.46326H355.201C351.823 4.46707 348.585 5.81059 346.197 8.19904C343.808 10.5875 342.465 13.8258 342.461 17.2036V94.8303C342.465 98.2081 343.808 101.446 346.197 103.835C348.585 106.223 351.823 107.567 355.201 107.571Z" fill="#CCECDF"/>
<path d="M405.278 97.5717H472.378C475.542 97.5682 478.575 96.3101 480.812 94.0732C483.049 91.8363 484.307 88.8035 484.311 85.64V26.3936C484.307 23.2302 483.049 20.1973 480.812 17.9605C478.575 15.7236 475.542 14.4654 472.378 14.4619H364.06C360.897 14.4654 357.864 15.7236 355.627 17.9605C353.39 20.1974 352.132 23.2302 352.129 26.3936V44.4235C352.145 58.5145 357.749 72.0238 367.713 81.9875C377.677 91.9513 391.187 97.5559 405.278 97.5717Z" fill="white"/>
<path d="M374.866 46.9039H461.573C462.323 46.9039 463.042 46.606 463.573 46.0757C464.103 45.5453 464.401 44.8261 464.401 44.0761C464.401 43.3261 464.103 42.6068 463.573 42.0765C463.042 41.5462 462.323 41.2483 461.573 41.2483H374.866C374.116 41.2483 373.397 41.5462 372.867 42.0765C372.336 42.6068 372.038 43.3261 372.038 44.0761C372.038 44.8261 372.336 45.5453 372.867 46.0757C373.397 46.606 374.116 46.9039 374.866 46.9039Z" fill="#80D0AE"/>
<path d="M448.01 58.0779H461.573C462.323 58.0779 463.042 57.7799 463.573 57.2496C464.103 56.7192 464.401 55.9999 464.401 55.2499C464.401 54.4999 464.103 53.7806 463.573 53.2503C463.042 52.7199 462.323 52.422 461.573 52.422H448.01C447.26 52.422 446.54 52.7199 446.01 53.2503C445.48 53.7806 445.182 54.4999 445.182 55.2499C445.182 55.9999 445.48 56.7192 446.01 57.2496C446.54 57.7799 447.26 58.0779 448.01 58.0779Z" fill="#CCECDF"/>
<path d="M423.988 69.2519H461.573C462.322 69.2504 463.04 68.9517 463.569 68.4216C464.098 67.8914 464.395 67.173 464.395 66.424C464.395 65.675 464.098 64.9566 463.569 64.4264C463.04 63.8963 462.322 63.5976 461.573 63.5961H423.988C423.238 63.5961 422.518 63.894 421.988 64.4244C421.458 64.9547 421.16 65.674 421.16 66.424C421.16 67.174 421.458 67.8933 421.988 68.4237C422.518 68.954 423.238 69.2519 423.988 69.2519Z" fill="#80D0AE"/>
<path d="M498.376 122.558C483.652 122.558 471.715 110.621 471.715 95.8964C471.715 81.1716 483.652 69.2347 498.376 69.2347C513.101 69.2347 525.038 81.1716 525.038 95.8964C525.038 110.621 513.101 122.558 498.376 122.558Z" fill="#FFE3AA"/>
</g>
<defs>
<clipPath id="clip0_318_963">
<rect width="1000" height="866.276" fill="white" transform="matrix(-1 0 0 1 958.632 0)"/>
</clipPath>
</defs>
</svg>
