<svg width="326" height="357" viewBox="0 0 326 357" fill="none" xmlns="http://www.w3.org/2000/svg">
<path d="M178.667 145L198.667 133.453V156.547L178.667 145Z" fill="#80D0AE"/>
<path d="M220 145L200 156.547V133.453L220 145Z" fill="#AADFC9"/>
<path d="M220.55 146.103L221.007 169.193L200.782 158.044L220.55 146.103Z" fill="#80D0AE"/>
<path d="M219.996 170.526L199.996 182.073V158.979L219.996 170.526Z" fill="#AADFC9"/>
<path d="M178.662 170.526L198.662 158.979V182.073L178.662 170.526Z" fill="#80D0AE"/>
<path d="M178.112 169.423L177.655 146.333L197.88 157.482L178.112 169.423Z" fill="#AADFC9"/>
<g opacity="0.4">
<path d="M247.5 157C247.5 183.234 226.234 204.5 200 204.5C173.766 204.5 152.5 183.234 152.5 157C152.5 130.766 173.766 109.5 200 109.5C226.234 109.5 247.5 130.766 247.5 157Z" stroke="#AADFC9" stroke-width="5" stroke-miterlimit="10" stroke-linecap="round" stroke-linejoin="round"/>
<path d="M92.3335 63.1676C83.6668 48.1676 88.8335 28.6676 104 20.0009L132.833 3.50093L92.3335 63.1676ZM92.3335 63.1676L94.4982 61.9169C94.4977 61.9161 94.4972 61.9152 94.4967 61.9144C94.4966 61.9142 94.4965 61.9141 94.4964 61.9139L92.3335 63.1676ZM168.677 14.766C168.68 14.7704 168.682 14.7748 168.685 14.7792L170.834 13.5009L168.67 14.7535L168.677 14.766ZM229.334 13.5009L231.482 14.7792C231.485 14.7749 231.487 14.7707 231.49 14.7664L231.497 14.7535L229.334 13.5009ZM231.489 299.235C231.487 299.231 231.485 299.227 231.482 299.223L229.334 300.501L231.497 299.248L231.489 299.235ZM227.5 297.334L229.669 296.091C229.668 296.089 229.667 296.087 229.666 296.086L229.664 296.082L227.5 297.334ZM168.685 299.223C168.683 299.227 168.68 299.231 168.678 299.235L168.67 299.248L170.834 300.501L168.685 299.223ZM94.4964 252.088C94.497 252.087 94.4976 252.086 94.4982 252.085L92.3335 250.834L94.4964 252.088ZM305.663 252.075C305.664 252.077 305.666 252.079 305.667 252.082C305.668 252.084 305.669 252.086 305.671 252.088L307.833 250.834L305.663 252.075ZM305.671 61.9139C305.67 61.9149 305.669 61.9159 305.669 61.9169L307.832 63.167L305.671 61.9139ZM170.502 17.9179L170.503 17.9202L172.667 16.6677L170.498 17.9109C170.499 17.9132 170.501 17.9156 170.502 17.9179Z" stroke="#CCECDF" stroke-width="5" stroke-miterlimit="10" stroke-linecap="round" stroke-linejoin="round"/>
</g>
</svg>
