<svg width="233" height="201" viewBox="0 0 233 201" fill="none" xmlns="http://www.w3.org/2000/svg">
<g clip-path="url(#clip0_798_1991)">
<path d="M17.4964 184.456C18.839 184.93 20.2806 185.049 21.6821 184.801C23.0837 184.553 24.398 183.946 25.4986 183.039C28.3013 180.674 29.1802 176.779 29.8951 173.171L32.0099 162.5L27.5823 165.565C24.398 167.769 21.1422 170.044 18.9377 173.236C16.7331 176.429 15.7713 180.787 17.5421 184.241" fill="#E6E6E6"/>
<path d="M18.18 198.118C17.6227 194.036 17.0493 189.902 17.4411 185.776C17.7884 182.113 18.9003 178.535 21.164 175.6C22.3655 174.045 23.8276 172.713 25.4844 171.664C25.9164 171.39 26.314 172.078 25.8839 172.351C23.0171 174.172 20.7996 176.862 19.5512 180.032C18.1726 183.557 17.9512 187.4 18.1887 191.145C18.3322 193.409 18.6372 195.659 18.9436 197.906C18.9678 198.007 18.9527 198.114 18.9013 198.205C18.85 198.296 18.7663 198.364 18.6671 198.395C18.5658 198.423 18.458 198.409 18.3668 198.357C18.2757 198.305 18.2087 198.219 18.1802 198.117L18.18 198.118Z" fill="#F2F2F2"/>
<path d="M22.1909 191.569C22.7666 192.449 23.5581 193.165 24.4891 193.648C25.42 194.131 26.4591 194.365 27.5062 194.328C30.1975 194.199 32.4404 192.312 34.4592 190.519L40.4317 185.218L36.479 185.027C33.6365 184.891 30.7205 184.762 28.013 185.644C25.3056 186.527 22.8086 188.647 22.3136 191.464" fill="#E6E6E6"/>
<path d="M16.6048 200.464C19.2877 195.691 22.3995 190.387 27.9601 188.692C29.5061 188.222 31.1271 188.054 32.736 188.196C33.2431 188.24 33.1165 189.026 32.6104 188.982C29.9135 188.757 27.2218 189.473 24.9885 191.01C22.8393 192.48 21.1659 194.525 19.7498 196.693C18.8822 198.021 18.1051 199.405 17.328 200.788C17.0797 201.23 16.3536 200.911 16.6048 200.464Z" fill="#F2F2F2"/>
<path d="M231.281 141.55H83.3662C82.9104 141.549 82.4735 141.367 82.1512 141.043C81.8289 140.719 81.6476 140.28 81.647 139.821V1.72832C81.6476 1.27013 81.8289 0.830868 82.1512 0.506875C82.4735 0.182882 82.9104 0.000598976 83.3662 0H231.281C231.737 0.000598976 232.174 0.182882 232.496 0.506875C232.818 0.830868 232.999 1.27013 233 1.72832V139.821C233 140.279 232.818 140.719 232.496 141.043C232.174 141.367 231.737 141.549 231.281 141.55ZM83.3662 0.689967C83.093 0.690563 82.8312 0.799916 82.6381 0.99409C82.4449 1.18826 82.3362 1.45145 82.3356 1.72605V139.821C82.3362 140.096 82.4449 140.359 82.6381 140.553C82.8312 140.747 83.093 140.857 83.3662 140.857H231.281C231.554 140.857 231.816 140.747 232.009 140.553C232.202 140.359 232.311 140.096 232.312 139.821V1.72832C232.311 1.45372 232.202 1.19053 232.009 0.996358C231.816 0.802184 231.554 0.692831 231.281 0.692235L83.3662 0.689967Z" fill="#CACACA"/>
<path d="M153.258 35.8838C152.949 35.8843 152.653 36.0082 152.434 36.2282C152.216 36.4482 152.093 36.7463 152.093 37.0571C152.093 37.368 152.216 37.6661 152.434 37.8861C152.653 38.1061 152.949 38.23 153.258 38.2305H217.303C217.613 38.23 217.909 38.1061 218.127 37.8861C218.346 37.6661 218.469 37.368 218.469 37.0571C218.469 36.7463 218.346 36.4482 218.127 36.2282C217.909 36.0082 217.613 35.8843 217.303 35.8838H153.258Z" fill="#E4E4E4"/>
<path d="M153.259 42.9248C152.95 42.9256 152.653 43.0495 152.435 43.2695C152.217 43.4894 152.094 43.7875 152.094 44.0982C152.094 44.4089 152.217 44.7069 152.435 44.9269C152.653 45.1468 152.95 45.2708 153.259 45.2715H185.955C186.264 45.2708 186.56 45.1468 186.778 44.9269C186.997 44.7069 187.119 44.4089 187.119 44.0982C187.119 43.7875 186.997 43.4894 186.778 43.2695C186.56 43.0495 186.264 42.9256 185.955 42.9248H153.259Z" fill="#E4E4E4"/>
<path d="M97.281 80.7881C96.972 80.7888 96.6758 80.9128 96.4575 81.1328C96.2393 81.3527 96.1167 81.6508 96.1167 81.9615C96.1167 82.2722 96.2393 82.5702 96.4575 82.7901C96.6758 83.0101 96.972 83.1341 97.281 83.1348H217.366C217.675 83.1341 217.971 83.0101 218.189 82.7901C218.407 82.5702 218.53 82.2722 218.53 81.9615C218.53 81.6508 218.407 81.3527 218.189 81.1328C217.971 80.9128 217.675 80.7888 217.366 80.7881H97.281Z" fill="#E4E4E4"/>
<path d="M97.281 87.8291C96.972 87.8299 96.6758 87.9538 96.4575 88.1738C96.2393 88.3937 96.1167 88.6918 96.1167 89.0025C96.1167 89.3132 96.2393 89.6112 96.4575 89.8312C96.6758 90.0511 96.972 90.1751 97.281 90.1758H186.017C186.326 90.1751 186.622 90.0511 186.84 89.8312C187.059 89.6112 187.181 89.3132 187.181 89.0025C187.181 88.6918 187.059 88.3937 186.84 88.1738C186.622 87.9538 186.326 87.8299 186.017 87.8291H97.281Z" fill="#E4E4E4"/>
<path d="M97.281 94.71C96.972 94.7107 96.6758 94.8347 96.4575 95.0546C96.2393 95.2746 96.1167 95.5726 96.1167 95.8833C96.1167 96.194 96.2393 96.492 96.4575 96.712C96.6758 96.932 96.972 97.0559 97.281 97.0567H217.366C217.675 97.0559 217.971 96.932 218.189 96.712C218.407 96.492 218.53 96.194 218.53 95.8833C218.53 95.5726 218.407 95.2746 218.189 95.0546C217.971 94.8347 217.675 94.7107 217.366 94.71H97.281Z" fill="#E4E4E4"/>
<path d="M97.281 101.751C96.972 101.752 96.6758 101.876 96.4575 102.096C96.2393 102.316 96.1167 102.614 96.1167 102.924C96.1167 103.235 96.2393 103.533 96.4575 103.753C96.6758 103.973 96.972 104.097 97.281 104.098H186.017C186.326 104.097 186.622 103.973 186.84 103.753C187.059 103.533 187.181 103.235 187.181 102.924C187.181 102.614 187.059 102.316 186.84 102.096C186.622 101.876 186.326 101.752 186.017 101.751H97.281Z" fill="#E4E4E4"/>
<path d="M97.281 108.816C96.972 108.817 96.6758 108.941 96.4575 109.161C96.2393 109.381 96.1167 109.679 96.1167 109.99C96.1167 110.3 96.2393 110.598 96.4575 110.818C96.6758 111.038 96.972 111.162 97.281 111.163H217.366C217.675 111.162 217.971 111.038 218.189 110.818C218.407 110.598 218.53 110.3 218.53 109.99C218.53 109.679 218.407 109.381 218.189 109.161C217.971 108.941 217.675 108.817 217.366 108.816H97.281Z" fill="#E4E4E4"/>
<path d="M97.281 115.857C96.972 115.858 96.6758 115.982 96.4575 116.202C96.2393 116.422 96.1167 116.72 96.1167 117.031C96.1167 117.341 96.2393 117.64 96.4575 117.859C96.6758 118.079 96.972 118.203 97.281 118.204H186.017C186.326 118.203 186.622 118.079 186.84 117.859C187.059 117.64 187.181 117.341 187.181 117.031C187.181 116.72 187.059 116.422 186.84 116.202C186.622 115.982 186.326 115.858 186.017 115.857H97.281Z" fill="#E4E4E4"/>
<path d="M116.301 57.4358C112.985 57.4358 109.743 56.4471 106.985 54.5948C104.227 52.7424 102.078 50.1096 100.809 47.0292C99.5395 43.9488 99.2074 40.5592 99.8544 37.289C100.501 34.0189 102.099 31.015 104.444 28.6574C106.789 26.2997 109.777 24.6942 113.03 24.0437C116.283 23.3932 119.654 23.727 122.718 25.003C125.783 26.2789 128.402 28.4396 130.244 31.2119C132.087 33.9842 133.07 37.2435 133.07 40.5778C133.065 45.0472 131.297 49.3321 128.153 52.4925C125.01 55.6529 120.747 57.4307 116.301 57.4358Z" fill="#01A05D"/>
<path d="M65.3985 121.177C65.3695 120.562 65.2067 119.96 64.9214 119.415C64.6362 118.87 64.2356 118.394 63.7477 118.021C63.2598 117.649 62.6965 117.388 62.0976 117.258C61.4987 117.128 60.8787 117.131 60.2812 117.268L54.7384 109.415L49.1699 111.637L57.1524 122.617C57.4475 123.61 58.0949 124.461 58.972 125.007C59.8492 125.553 60.895 125.756 61.9115 125.579C62.9279 125.401 63.8443 124.855 64.487 124.044C65.1297 123.233 65.454 122.213 65.3985 121.177Z" fill="#A0616A"/>
<path d="M54.5954 120.595L37.8237 98.7216L44.1079 78.8666C44.5684 73.8747 47.6756 72.4808 47.8078 72.4239L48.0095 72.3369L53.4779 86.9972L49.4628 97.7609L59.3178 114.424L54.5954 120.595Z" fill="#3F3D56"/>
<path d="M112.841 53.1663C112.233 53.2429 111.649 53.4527 111.131 53.7807C110.612 54.1087 110.171 54.5471 109.839 55.0649C109.507 55.5827 109.292 56.1674 109.21 56.7778C109.127 57.3881 109.178 58.0093 109.36 58.5976L102 64.7603L104.635 70.1697L114.906 61.3201C115.869 60.9475 116.663 60.2328 117.136 59.3114C117.61 58.3901 117.731 57.3261 117.476 56.321C117.222 55.3159 116.609 54.4397 115.755 53.8583C114.901 53.2768 113.864 53.0306 112.841 53.1663Z" fill="#A0616A"/>
<path d="M113.099 64.0393L92.7029 82.5407L72.5259 77.7772C67.5397 77.7015 65.9171 74.695 65.8504 74.5669L65.7485 74.3714L79.8649 67.757L90.8503 70.9491L106.613 59.7832L113.099 64.0393Z" fill="#3F3D56"/>
<path d="M77.7701 195.566L83.2501 195.566L85.8569 174.316L77.769 174.317L77.7701 195.566Z" fill="#A0616A"/>
<path d="M93.8188 200.681L76.596 200.681L76.5957 193.992L88.9866 193.991C90.2681 193.991 91.4972 194.503 92.4034 195.414C93.3096 196.325 93.8187 197.56 93.8188 198.849L93.8188 200.681Z" fill="#2F2E41"/>
<path d="M55.8674 195.566L61.3474 195.566L63.9545 174.316L55.8667 174.317L55.8674 195.566Z" fill="#A0616A"/>
<path d="M71.916 200.681L54.6932 200.681L54.6929 193.992L67.0838 193.991C67.7183 193.991 68.3467 194.117 68.9329 194.361C69.5192 194.605 70.0518 194.963 70.5005 195.414C70.9493 195.865 71.3052 196.4 71.548 196.99C71.7909 197.579 71.9159 198.211 71.9159 198.849L71.916 200.681Z" fill="#2F2E41"/>
<path d="M53.9185 118.003L54.3654 149.458L54.8127 190.8L64.6462 189.901L69.5633 132.832L75.8212 189.901H85.9733L86.9959 132.383L83.42 119.801L53.9185 118.003Z" fill="#2F2E41"/>
<path d="M73.1657 122.227C62.4659 122.228 52.6169 117.36 52.484 117.293L52.3735 117.237L51.4756 95.5745C51.2152 94.8089 46.0881 79.7035 45.2197 74.9023C44.3399 70.038 57.091 65.7689 58.6394 65.2696L58.9908 61.3565L73.2799 59.8086L75.091 64.8156L80.2173 66.7481C80.7985 66.9673 81.2795 67.3932 81.5691 67.9452C81.8588 68.4971 81.9369 69.1367 81.7889 69.7427L78.9397 81.3906L85.8983 119.928L84.4002 119.993C80.8092 121.623 76.9336 122.227 73.1657 122.227Z" fill="#3F3D56"/>
<path d="M71.6291 56.0627C76.6148 53.3228 78.4471 47.0385 75.7217 42.0263C72.9962 37.0141 66.7451 35.1721 61.7594 37.912C56.7737 40.6519 54.9413 46.9362 57.6668 51.9484C60.3922 56.9606 66.6434 58.8026 71.6291 56.0627Z" fill="#A0616A"/>
<path d="M58.3615 57.0002C60.3222 59.0999 63.9634 57.9727 64.2189 55.1043C64.239 54.8816 64.2375 54.6575 64.2146 54.4351C64.0827 53.1645 63.3525 52.011 63.5274 50.6694C63.567 50.3355 63.6907 50.0173 63.8869 49.745C65.4493 47.6416 69.117 50.6857 70.5915 48.7816C71.4957 47.6141 70.4329 45.7759 71.1267 44.471C72.0425 42.7487 74.7549 43.5983 76.4559 42.6551C78.3485 41.6056 78.2353 38.6865 76.9895 36.9109C75.4702 34.7455 72.8063 33.5901 70.1756 33.4236C67.545 33.2571 64.9324 33.972 62.4765 34.9342C59.686 36.0274 56.9188 37.5383 55.2016 40.005C53.1133 43.0047 52.9123 47.0376 53.9567 50.5453C54.5921 52.679 56.7604 55.2856 58.3615 57.0002Z" fill="#2F2E41"/>
<path d="M130.73 200.947H0.342225C0.251461 200.947 0.16441 200.911 0.10023 200.846C0.0360503 200.782 0 200.694 0 200.603C0 200.512 0.0360503 200.424 0.10023 200.36C0.16441 200.295 0.251461 200.259 0.342225 200.259H130.73C130.821 200.259 130.908 200.295 130.972 200.36C131.036 200.424 131.072 200.512 131.072 200.603C131.072 200.694 131.036 200.782 130.972 200.846C130.908 200.911 130.821 200.947 130.73 200.947Z" fill="#CACACA"/>
<path d="M115.333 46.9448C115.031 46.9452 114.739 46.8302 114.518 46.623L108.989 41.4598C108.756 41.2424 108.619 40.9411 108.608 40.6222C108.596 40.3033 108.711 39.9928 108.927 39.7589C109.143 39.5251 109.443 39.387 109.76 39.3751C110.077 39.3632 110.386 39.4783 110.619 39.6953L115.302 44.0687L124.569 34.7534C124.68 34.6409 124.812 34.5515 124.957 34.4904C125.103 34.4293 125.259 34.3978 125.417 34.3975C125.574 34.3972 125.731 34.4282 125.876 34.4887C126.022 34.5492 126.154 34.6381 126.266 34.7502C126.377 34.8623 126.466 34.9955 126.526 35.142C126.586 35.2885 126.617 35.4455 126.617 35.6041C126.616 35.7626 126.585 35.9195 126.524 36.0658C126.463 36.212 126.374 36.3448 126.263 36.4565L116.18 46.5922C116.069 46.7042 115.937 46.7929 115.792 46.8535C115.646 46.914 115.49 46.945 115.333 46.9448Z" fill="white"/>
</g>
<defs>
<clipPath id="clip0_798_1991">
<rect width="233" height="201" fill="white"/>
</clipPath>
</defs>
</svg>
