<svg width="234" height="268" viewBox="0 0 234 268" fill="none" xmlns="http://www.w3.org/2000/svg">
<path d="M134 109L149 100.34V117.66L134 109Z" fill="#56C093"/>
<path d="M165 109L150 117.66V100.34L165 109Z" fill="#FFC856"/>
<path d="M165.412 109.827L165.756 127.145L150.587 118.783L165.412 109.827Z" fill="#56C093"/>
<path d="M164.997 128.145L149.997 136.805V119.484L164.997 128.145Z" fill="#FFC856"/>
<path d="M133.997 128.145L148.997 119.484V136.805L133.997 128.145Z" fill="#56C093"/>
<path d="M133.584 127.317L133.241 110L148.41 118.361L133.584 127.317Z" fill="#FFC856"/>
<g opacity="0.4">
<path d="M185 118C185 137.33 169.33 153 150 153C130.67 153 115 137.33 115 118C115 98.67 130.67 83 150 83C169.33 83 185 98.67 185 118Z" stroke="#56C093" stroke-width="5" stroke-miterlimit="10" stroke-linecap="round" stroke-linejoin="round"/>
<path d="M69.25 47.6257C62.75 36.3757 66.625 21.7507 78 15.2507L99.625 2.87567L69.25 47.6257ZM69.25 47.6257L71.4147 46.375C71.4144 46.3745 71.4141 46.374 71.4138 46.3735C71.4135 46.373 71.4132 46.3725 71.4129 46.372L69.25 47.6257ZM127.331 13.994C127.332 13.9953 127.333 13.9967 127.333 13.998L127.336 14.0033L129.5 12.7507L127.331 13.994ZM172 10.3757L174.149 11.6539C174.151 11.6497 174.154 11.6456 174.156 11.6414L174.164 11.6283L172 10.3757ZM174.156 224.36C174.153 224.356 174.151 224.352 174.149 224.347L172 225.626L174.164 224.373L174.156 224.36ZM170.625 223.251L172.794 222.007C172.793 222.006 172.792 222.004 172.791 222.002L172.789 221.998L170.625 223.251ZM125.976 224.347C125.974 224.352 125.972 224.356 125.969 224.36L125.961 224.373L128.125 225.626L125.976 224.347ZM71.4129 189.629C71.4135 189.628 71.4141 189.627 71.4147 189.626L69.25 188.376L71.4129 189.629ZM228.704 189.616C228.706 189.618 228.707 189.62 228.708 189.622C228.709 189.625 228.711 189.627 228.712 189.629L230.875 188.376L228.704 189.616ZM228.712 46.372C228.712 46.3722 228.712 46.3723 228.712 46.3725C228.711 46.3733 228.711 46.3742 228.71 46.375L230.875 47.6257L228.712 46.372ZM125.961 11.6283L125.969 11.6414C125.972 11.6456 125.974 11.6498 125.976 11.6539L128.125 10.3757L125.961 11.6283Z" stroke="#FFC856" stroke-width="5" stroke-miterlimit="10" stroke-linecap="round" stroke-linejoin="round"/>
</g>
</svg>
