<svg width="20" height="20" viewBox="0 0 20 20" fill="none" xmlns="http://www.w3.org/2000/svg">
<g clip-path="url(#clip0_593_2937)">
<path d="M13.3335 17.5V15.8333C13.3335 14.9493 12.9823 14.1014 12.3572 13.4763C11.7321 12.8512 10.8842 12.5 10.0002 12.5H4.16683C3.28277 12.5 2.43493 12.8512 1.80981 13.4763C1.18469 14.1014 0.833496 14.9493 0.833496 15.8333V17.5" stroke="white" stroke-width="2" stroke-linecap="round" stroke-linejoin="round"/>
<path d="M7.08333 9.16667C8.92428 9.16667 10.4167 7.67428 10.4167 5.83333C10.4167 3.99238 8.92428 2.5 7.08333 2.5C5.24238 2.5 3.75 3.99238 3.75 5.83333C3.75 7.67428 5.24238 9.16667 7.08333 9.16667Z" stroke="white" stroke-width="2" stroke-linecap="round" stroke-linejoin="round"/>
<g clip-path="url(#clip1_593_2937)">
<path d="M16 9.5C16.8284 9.5 17.5 8.82843 17.5 8C17.5 7.17157 16.8284 6.5 16 6.5C15.1716 6.5 14.5 7.17157 14.5 8C14.5 8.82843 15.1716 9.5 16 9.5Z" stroke="white" stroke-linecap="round" stroke-linejoin="round"/>
<path d="M18.6956 9.10111L18.6955 9.1011C18.6713 9.15594 18.6641 9.21678 18.6748 9.27576L18.4288 9.32036L18.6748 9.27576C18.6854 9.33435 18.7133 9.38845 18.7547 9.43117L18.7735 9.44995L18.7736 9.45005L18.5968 9.62683C18.6588 9.68874 18.708 9.76227 18.7415 9.8432L18.9725 9.74747C19.0186 9.85875 19.0424 9.97803 19.0424 10.0985C19.0424 10.219 19.0186 10.3382 18.9725 10.4495L18.7415 10.3538L18.9725 10.4495C18.9263 10.5608 18.8587 10.6619 18.7735 10.747L18.5968 10.5702L18.7737 10.7468C18.6886 10.8321 18.5875 10.8997 18.4762 10.9458L18.3805 10.7149L18.4762 10.9458C18.3649 10.9919 18.2456 11.0157 18.1252 11.0157C18.0047 11.0157 17.8854 10.9919 17.7741 10.9458L17.8699 10.7149L17.7741 10.9458C17.6629 10.8997 17.5618 10.8321 17.4766 10.7468M18.6956 9.10111L17.6335 10.5502M18.6956 9.10111L18.6966 9.09865C18.7197 9.04487 18.7579 8.99901 18.8067 8.9667C18.8554 8.93447 18.9124 8.91714 18.9708 8.91683H19.0002C19.2433 8.91683 19.4764 8.82025 19.6483 8.64834C19.8203 8.47644 19.9168 8.24328 19.9168 8.00016C19.9168 7.75705 19.8203 7.52389 19.6483 7.35198C19.4764 7.18007 19.2433 7.0835 19.0002 7.0835H18.9441C18.8857 7.08318 18.8287 7.06585 18.78 7.03362C18.742 7.00843 18.7104 6.97499 18.6873 6.93599C18.684 6.91417 18.6778 6.89284 18.6689 6.87256C18.6447 6.81772 18.6375 6.75688 18.6482 6.6979L18.4022 6.6533L18.6482 6.6979C18.6588 6.63931 18.6866 6.58521 18.7281 6.54249M18.6956 9.10111L18.7281 6.54249M17.4766 10.7468L17.6535 10.5702L17.4767 10.7469L17.4766 10.7468ZM17.4766 10.7468L17.4578 10.7281M17.4578 10.7281C17.4581 10.7283 17.4584 10.7286 17.4587 10.7289L17.6335 10.5502M17.4578 10.7281C17.4151 10.6866 17.361 10.6588 17.3024 10.6482L17.347 10.4022M17.4578 10.7281L17.4567 10.7269L17.6335 10.5502M17.6335 10.5502L17.45 5.22682M17.347 10.4022C17.2389 10.3826 17.1274 10.3958 17.0268 10.4402C16.9282 10.4824 16.8442 10.5526 16.7849 10.642C16.7257 10.7314 16.6939 10.8362 16.6935 10.9435M17.347 10.4022L18.5702 6.34683C18.6321 6.28491 18.6813 6.21139 18.7149 6.13046C18.7484 6.04952 18.7657 5.96277 18.7657 5.87516C18.7657 5.78755 18.7484 5.7008 18.7149 5.61987C18.6813 5.53894 18.6321 5.46541 18.5702 5.4035C18.5082 5.34151 18.4347 5.29234 18.3538 5.25879C18.2729 5.22524 18.1861 5.20797 18.0985 5.20797C18.0109 5.20797 17.9241 5.22524 17.8432 5.25879M17.347 10.4022L17.3024 10.6482C17.2434 10.6375 17.1826 10.6447 17.1278 10.6689L17.1253 10.67L17.1253 10.6699C17.0715 10.693 17.0257 10.7313 16.9934 10.78C16.9611 10.8287 16.9438 10.8857 16.9435 10.9441M16.6935 10.9435V11.0002C16.6935 11.177 16.6233 11.3465 16.4982 11.4716C16.3732 11.5966 16.2036 11.6668 16.0268 11.6668C15.85 11.6668 15.6804 11.5966 15.5554 11.4716C15.4304 11.3465 15.3602 11.177 15.3602 11.0002V10.9702M16.6935 10.9435L16.9435 10.9445C16.9435 10.9444 16.9435 10.9442 16.9435 10.9441M16.6935 10.9435H16.9435V10.9441M15.3602 10.9702C15.3576 10.8598 15.3219 10.7528 15.2577 10.6631C15.1935 10.5733 15.1037 10.5049 15.0002 10.4668C14.8996 10.4225 14.7881 10.4092 14.68 10.4288M15.3602 10.9702H15.1102V10.9735M15.3602 10.9702L15.1102 10.976C15.1102 10.9752 15.1102 10.9744 15.1102 10.9735M14.68 10.4288C14.5718 10.4484 14.4721 10.5 14.3935 10.5768L14.3735 10.5968M14.68 10.4288L14.7246 10.6748C14.666 10.6854 14.6119 10.7133 14.5692 10.7547L14.5504 10.7735M14.68 10.4288L14.7246 10.6748C14.7836 10.6641 14.8444 10.6713 14.8992 10.6955C14.904 10.6977 14.9089 10.6996 14.9139 10.7015C14.9704 10.7222 15.0193 10.7595 15.0543 10.8085C15.0889 10.8568 15.1083 10.9142 15.1102 10.9735M14.3735 10.5968C14.3116 10.6588 14.2381 10.708 14.1571 10.7415C14.0762 10.7751 13.9894 10.7924 13.9018 10.7924C13.8142 10.7924 13.7275 10.7751 13.6465 10.7415C13.5656 10.708 13.4921 10.6588 13.4302 10.5968C13.3682 10.5349 13.319 10.4614 13.2855 10.3805C13.2519 10.2995 13.2346 10.2128 13.2346 10.1252C13.2346 10.0376 13.2519 9.9508 13.2855 9.86987C13.319 9.78894 13.3682 9.71541 13.4302 9.6535L13.4502 9.6335C13.527 9.55494 13.5786 9.45516 13.5982 9.34703C13.6178 9.23889 13.6045 9.12737 13.5602 9.02683C13.5179 8.92824 13.4477 8.84416 13.3583 8.78493C13.2689 8.72571 13.1641 8.69392 13.0568 8.6935H13.0002C12.8234 8.6935 12.6538 8.62326 12.5288 8.49823C12.4037 8.37321 12.3335 8.20364 12.3335 8.02683C12.3335 7.85002 12.4037 7.68045 12.5288 7.55543C12.6538 7.4304 12.8234 7.36016 13.0002 7.36016H13.0302C13.1405 7.35758 13.2475 7.32187 13.3373 7.25767C13.427 7.19346 13.4954 7.10374 13.5335 7.00016C13.5779 6.89962 13.5911 6.7881 13.5715 6.67997C13.5519 6.57184 13.5003 6.47206 13.4235 6.3935L13.4035 6.3735C13.3415 6.31158 13.2923 6.23805 13.2588 6.15712C13.2252 6.07619 13.208 5.98944 13.208 5.90183C13.208 5.81422 13.2252 5.72747 13.2588 5.64654C13.2923 5.5656 13.3415 5.49208 13.4035 5.43016C13.4654 5.36818 13.5389 5.31901 13.6199 5.28546C13.7008 5.25191 13.7876 5.23464 13.8752 5.23464C13.9628 5.23464 14.0495 5.25191 14.1305 5.28546C14.2114 5.31901 14.2849 5.36818 14.3468 5.43016L14.3668 5.45016C14.4454 5.52701 14.5452 5.57856 14.6533 5.59816C14.7614 5.61777 14.873 5.60453 14.9735 5.56016H15.0002C15.0988 5.51791 15.1828 5.44775 15.2421 5.35832C15.3013 5.26889 15.3331 5.16409 15.3335 5.05683V5.00016C15.3335 4.82335 15.4037 4.65378 15.5288 4.52876C15.6538 4.40373 15.8234 4.3335 16.0002 4.3335C16.177 4.3335 16.3465 4.40373 16.4716 4.52876C16.5966 4.65378 16.6668 4.82335 16.6668 5.00016V5.03016C16.6673 5.13742 16.699 5.24222 16.7583 5.33165C16.8175 5.42108 16.9016 5.49124 17.0002 5.5335C17.1007 5.57787 17.2122 5.5911 17.3204 5.5715C17.4285 5.55189 17.5283 5.50034 17.6068 5.4235L17.6268 5.4035C17.6887 5.34151 17.7623 5.29234 17.8432 5.25879M14.3735 10.5968L14.5503 10.7736L14.5504 10.7735M14.3735 10.5968L14.5504 10.7735M17.8432 5.25879L17.7475 5.02785C17.6362 5.07398 17.5351 5.14159 17.45 5.22682M17.8432 5.25879L17.7475 5.02785C17.8587 4.98172 17.978 4.95797 18.0985 4.95797C18.219 4.95797 18.3382 4.98172 18.4495 5.02785C18.5608 5.07398 18.6619 5.14159 18.747 5.22682H17.45M18.7281 6.54249L18.7468 6.5237L18.7281 6.54249ZM17.45 5.22682L17.4312 5.2456C17.3885 5.28706 17.3344 5.31488 17.2758 5.32551C17.2168 5.3362 17.1559 5.32898 17.1011 5.30478L17.1011 5.30477L17.0986 5.30371C17.0449 5.28066 16.999 5.24239 16.9667 5.19361C16.9345 5.14495 16.9171 5.08794 16.9168 5.02957V5.00016C16.9168 4.75705 16.8203 4.52389 16.6483 4.35198C16.4764 4.18007 16.2433 4.0835 16.0002 4.0835C15.757 4.0835 15.5239 4.18007 15.352 4.35198C15.1801 4.52389 15.0835 4.75705 15.0835 5.00016V5.05624C15.0832 5.11461 15.0659 5.17161 15.0336 5.22028C15.0084 5.25832 14.975 5.28997 14.936 5.31299C14.9142 5.3163 14.8928 5.32249 14.8726 5.33145C14.8177 5.35565 14.7569 5.36287 14.6979 5.35218C14.6393 5.34155 14.5852 5.31373 14.5425 5.27226L14.5237 5.25348C14.5237 5.25347 14.5237 5.25345 14.5236 5.25343C14.5236 5.25341 14.5236 5.2534 14.5236 5.25339C14.4385 5.1682 14.3374 5.10063 14.2262 5.05451C14.1149 5.00838 13.9956 4.98464 13.8752 4.98464C13.7547 4.98464 13.6354 5.00838 13.5241 5.05451C13.4129 5.10064 13.3118 5.16826 13.2266 5.25348L13.4035 5.43014L13.2268 5.25329C13.1416 5.33842 13.074 5.43952 13.0278 5.5508C12.9817 5.66208 12.958 5.78137 12.958 5.90183C12.958 6.02229 12.9817 6.14158 13.0278 6.25286C13.074 6.3641 13.1415 6.46516 13.2267 6.55027C13.2268 6.55031 13.2268 6.55034 13.2268 6.55037L13.2456 6.56915C13.2871 6.61187 13.3149 6.66597 13.3255 6.72457C13.3362 6.78355 13.329 6.84438 13.3048 6.89922C13.3027 6.90404 13.3007 6.90892 13.2989 6.91387C13.2781 6.97037 13.2408 7.0193 13.1918 7.05432C13.1435 7.08886 13.0861 7.10828 13.0268 7.11016H13.0002C12.757 7.11016 12.5239 7.20674 12.352 7.37865C12.1801 7.55056 12.0835 7.78371 12.0835 8.02683C12.0835 8.26994 12.1801 8.5031 12.352 8.67501C12.5239 8.84692 12.757 8.9435 13.0002 8.9435H13.0562C13.1146 8.94381 13.1716 8.96114 13.2203 8.99337C13.2691 9.02567 13.3073 9.07154 13.3304 9.12531L13.3304 9.12532L13.3314 9.12777C13.3556 9.18261 13.3629 9.24344 13.3522 9.30242C13.3416 9.36102 13.3137 9.41512 13.2723 9.45784L13.2535 9.47662C13.1683 9.56175 13.1006 9.66285 13.0545 9.77413L13.2802 9.86767L13.0545 9.77413C13.0084 9.88542 12.9846 10.0047 12.9846 10.1252C12.9846 10.2456 13.0084 10.3649 13.0545 10.4762C13.1006 10.5875 13.1683 10.6886 13.2535 10.7737L13.4301 10.5969L13.2533 10.7735C13.3384 10.8587 13.4395 10.9263 13.5508 10.9725C13.6621 11.0186 13.7814 11.0424 13.9018 11.0424C14.0223 11.0424 14.1416 11.0186 14.2529 10.9725C14.3641 10.9263 14.4652 10.8587 14.5504 10.7735M15.1102 10.9735V11.0002C15.1102 11.2433 15.2067 11.4764 15.3786 11.6483C15.5506 11.8203 15.7837 11.9168 16.0268 11.9168C16.2699 11.9168 16.5031 11.8203 16.675 11.6483C16.8469 11.4764 16.9435 11.2433 16.9435 11.0002V10.9441" stroke="white" stroke-width="0.5" stroke-linecap="round" stroke-linejoin="round"/>
</g>
</g>
<defs>
<clipPath id="clip0_593_2937">
<rect width="20" height="20" fill="white"/>
</clipPath>
<clipPath id="clip1_593_2937">
<rect width="8" height="8" fill="white" transform="translate(12 4)"/>
</clipPath>
</defs>
</svg>
