<svg width="128" height="40" viewBox="0 0 128 40" fill="none" xmlns="http://www.w3.org/2000/svg">
<path d="M38.91 1.1905L30.605 9.78434L33.1995 12.2012L41.1262 3.76632C41.2081 3.67912 41.3225 3.62966 41.4421 3.62966H49.6754C50.0763 3.62966 50.2625 4.1271 49.9601 4.3903L40.7677 12.3905C38.5872 14.2883 35.3244 14.2288 33.2145 12.2529L21.5604 1.33907C20.6766 0.51142 19.5111 0.0508959 18.3003 0.0508959H6.0308C4.09114 0.0508959 3.12769 2.40311 4.51001 3.76379L19.9938 19.0051C20.3402 19.346 20.3387 19.9049 19.9907 20.2441L4.31798 35.5168C2.92504 36.8742 3.88604 39.2373 5.83097 39.2373H18.0658C19.4113 39.2373 20.7045 38.7161 21.6739 37.783L32.8228 27.0523C35.1312 24.8304 38.7691 24.7853 41.1319 26.9493L49.4925 34.6062C49.7841 34.8734 49.5951 35.3596 49.1996 35.3596H42.5692C42.0021 35.3596 41.4575 35.1373 41.0523 34.7404L33.027 26.8803L30.1756 29.6239L38.7814 38.0073C39.591 38.7959 40.6766 39.2373 41.8068 39.2373H53.4877C55.8425 39.2373 56.9857 36.3582 55.2722 34.7429L44.8189 24.8886C40.4127 20.7349 33.512 20.8043 29.1901 25.0457L18.6042 35.4345H11.0585C10.6713 35.4345 10.4782 34.9655 10.7532 34.693L24.0945 21.4699C25.1199 20.4537 25.1217 18.7969 24.0985 17.7785L10.6288 4.37053C10.3546 4.09768 10.5479 3.62966 10.9346 3.62966H18.2825L29.7995 14.5312C33.8024 18.3202 40.0655 18.3307 44.081 14.5551L55.5755 3.74729C57.0062 2.40212 56.0542 0 54.0905 0H41.716C40.6579 0 39.6452 0.429655 38.91 1.1905Z" fill="url(#paint0_linear_610_3150)"/>
<path d="M38.91 1.1905L30.605 9.78434L33.1995 12.2012L41.1262 3.76632C41.2081 3.67912 41.3225 3.62966 41.4421 3.62966H49.6754C50.0763 3.62966 50.2625 4.1271 49.9601 4.3903L40.7677 12.3905C38.5872 14.2883 35.3244 14.2288 33.2145 12.2529L21.5604 1.33907C20.6766 0.51142 19.5111 0.0508959 18.3003 0.0508959H6.0308C4.09114 0.0508959 3.12769 2.40311 4.51001 3.76379L19.9938 19.0051C20.3402 19.346 20.3387 19.9049 19.9907 20.2441L4.31798 35.5168C2.92504 36.8742 3.88604 39.2373 5.83097 39.2373H18.0658C19.4113 39.2373 20.7045 38.7161 21.6739 37.783L32.8228 27.0523C35.1312 24.8304 38.7691 24.7853 41.1319 26.9493L49.4925 34.6062C49.7841 34.8734 49.5951 35.3596 49.1996 35.3596H42.5692C42.0021 35.3596 41.4575 35.1373 41.0523 34.7404L33.027 26.8803L30.1756 29.6239L38.7814 38.0073C39.591 38.7959 40.6766 39.2373 41.8068 39.2373H53.4877C55.8425 39.2373 56.9857 36.3582 55.2722 34.7429L44.8189 24.8886C40.4127 20.7349 33.512 20.8043 29.1901 25.0457L18.6042 35.4345H11.0585C10.6713 35.4345 10.4782 34.9655 10.7532 34.693L24.0945 21.4699C25.1199 20.4537 25.1217 18.7969 24.0985 17.7785L10.6288 4.37053C10.3546 4.09768 10.5479 3.62966 10.9346 3.62966H18.2825L29.7995 14.5312C33.8024 18.3202 40.0655 18.3307 44.081 14.5551L55.5755 3.74729C57.0062 2.40212 56.0542 0 54.0905 0H41.716C40.6579 0 39.6452 0.429655 38.91 1.1905Z" fill="url(#paint1_angular_610_3150)" fill-opacity="0.8"/>
<path d="M38.91 1.1905L30.605 9.78434L33.1995 12.2012L41.1262 3.76632C41.2081 3.67912 41.3225 3.62966 41.4421 3.62966H49.6754C50.0763 3.62966 50.2625 4.1271 49.9601 4.3903L40.7677 12.3905C38.5872 14.2883 35.3244 14.2288 33.2145 12.2529L21.5604 1.33907C20.6766 0.51142 19.5111 0.0508959 18.3003 0.0508959H6.0308C4.09114 0.0508959 3.12769 2.40311 4.51001 3.76379L19.9938 19.0051C20.3402 19.346 20.3387 19.9049 19.9907 20.2441L4.31798 35.5168C2.92504 36.8742 3.88604 39.2373 5.83097 39.2373H18.0658C19.4113 39.2373 20.7045 38.7161 21.6739 37.783L32.8228 27.0523C35.1312 24.8304 38.7691 24.7853 41.1319 26.9493L49.4925 34.6062C49.7841 34.8734 49.5951 35.3596 49.1996 35.3596H42.5692C42.0021 35.3596 41.4575 35.1373 41.0523 34.7404L33.027 26.8803L30.1756 29.6239L38.7814 38.0073C39.591 38.7959 40.6766 39.2373 41.8068 39.2373H53.4877C55.8425 39.2373 56.9857 36.3582 55.2722 34.7429L44.8189 24.8886C40.4127 20.7349 33.512 20.8043 29.1901 25.0457L18.6042 35.4345H11.0585C10.6713 35.4345 10.4782 34.9655 10.7532 34.693L24.0945 21.4699C25.1199 20.4537 25.1217 18.7969 24.0985 17.7785L10.6288 4.37053C10.3546 4.09768 10.5479 3.62966 10.9346 3.62966H18.2825L29.7995 14.5312C33.8024 18.3202 40.0655 18.3307 44.081 14.5551L55.5755 3.74729C57.0062 2.40212 56.0542 0 54.0905 0H41.716C40.6579 0 39.6452 0.429655 38.91 1.1905Z" fill="url(#paint2_angular_610_3150)" fill-opacity="0.8"/>
<path d="M64.8784 23.7588C64.0762 23.7588 63.383 23.5836 62.7989 23.2331C62.2226 22.8749 61.7747 22.3803 61.4554 21.7495C61.1361 21.1108 60.9765 20.371 60.9765 19.5298C60.9765 18.6965 61.1361 17.9644 61.4554 17.3335C61.7747 16.6949 62.2226 16.1965 62.7989 15.8382C63.383 15.4799 64.0762 15.3008 64.8784 15.3008C65.8129 15.3008 66.5723 15.5267 67.1564 15.9784C67.7483 16.4223 68.1261 17.0454 68.2896 17.8476H67.2031C67.0785 17.3413 66.8215 16.9363 66.4321 16.6326C66.0505 16.3211 65.5326 16.1653 64.8784 16.1653C64.2942 16.1653 63.7841 16.3016 63.348 16.5742C62.9118 16.839 62.573 17.2245 62.3316 17.7307C62.098 18.2292 61.9811 18.8289 61.9811 19.5298C61.9811 20.2308 62.098 20.8344 62.3316 21.3406C62.573 21.839 62.9118 22.2246 63.348 22.4971C63.7841 22.7619 64.2942 22.8943 64.8784 22.8943C65.5326 22.8943 66.0505 22.7464 66.4321 22.4504C66.8215 22.1467 67.0785 21.7456 67.2031 21.2471H68.2896C68.1261 22.0337 67.7483 22.649 67.1564 23.0929C66.5723 23.5369 65.8129 23.7588 64.8784 23.7588ZM76.0085 23.6187V15.441H76.9898V19.0508H81.2305V15.441H82.2118V23.6187H81.2305V19.8569H76.9898V23.6187H76.0085ZM89.7318 23.6187L92.7459 15.441H93.7856L96.788 23.6187H95.7483L95.0006 21.5158H91.5193L90.7599 23.6187H89.7318ZM91.8113 20.7214H94.7085L93.2599 16.6793L91.8113 20.7214ZM104.312 23.6187V15.441H105.293L109.651 21.9948V15.441H110.632V23.6187H109.651L105.293 17.0648V23.6187H104.312ZM122.191 23.7588C121.428 23.7588 120.758 23.5836 120.182 23.2331C119.606 22.8749 119.158 22.3803 118.839 21.7495C118.519 21.1108 118.36 20.3749 118.36 19.5415C118.36 18.7082 118.519 17.9722 118.839 17.3335C119.166 16.6949 119.625 16.1965 120.217 15.8382C120.817 15.4799 121.522 15.3008 122.332 15.3008C123.251 15.3008 124.014 15.5228 124.621 15.9667C125.237 16.4106 125.634 17.022 125.813 17.8008H124.68C124.571 17.3102 124.31 16.9208 123.897 16.6326C123.492 16.3444 122.97 16.2004 122.332 16.2004C121.732 16.2004 121.21 16.3366 120.766 16.6092C120.322 16.874 119.976 17.2557 119.726 17.7541C119.485 18.2526 119.364 18.8484 119.364 19.5415C119.364 20.2347 119.485 20.8305 119.726 21.3289C119.968 21.8274 120.303 22.2129 120.731 22.4855C121.16 22.7503 121.658 22.8827 122.227 22.8827C123.099 22.8827 123.757 22.6295 124.201 22.1233C124.645 21.6093 124.898 20.9083 124.96 20.0205H122.6V19.2494H125.965V23.6187H125.065L124.984 22.2752C124.688 22.7503 124.325 23.1163 123.897 23.3733C123.469 23.6303 122.9 23.7588 122.191 23.7588Z" fill="#D6D6D6"/>
<defs>
<linearGradient id="paint0_linear_610_3150" x1="13.3603" y1="5.86609" x2="56.2847" y2="47.0562" gradientUnits="userSpaceOnUse">
<stop stop-color="#7BF165"/>
<stop offset="1" stop-color="#E4F275"/>
</linearGradient>
<radialGradient id="paint1_angular_610_3150" cx="0" cy="0" r="1" gradientUnits="userSpaceOnUse" gradientTransform="translate(33.8281 12.906) rotate(-136.282) scale(5.43366 3.53741)">
<stop/>
<stop offset="0.265625" stop-opacity="0.04"/>
<stop offset="0.401042" stop-opacity="0"/>
<stop offset="0.421875" stop-opacity="0"/>
<stop offset="1" stop-opacity="0"/>
</radialGradient>
<radialGradient id="paint2_angular_610_3150" cx="0" cy="0" r="1" gradientUnits="userSpaceOnUse" gradientTransform="translate(34.255 25.79) rotate(136.223) scale(8.7571 7.96293)">
<stop offset="0.00780658"/>
<stop offset="0.113747" stop-opacity="0.65"/>
<stop offset="0.261463" stop-opacity="0"/>
<stop offset="0.895833" stop-opacity="0"/>
<stop offset="0.990878" stop-opacity="0"/>
</radialGradient>
</defs>
</svg>
