<svg width="53" height="40" viewBox="0 0 53 40" fill="none" xmlns="http://www.w3.org/2000/svg">
<path d="M35.41 1.1905L27.105 9.78434L29.6995 12.2012L37.6262 3.76632C37.7081 3.67912 37.8225 3.62966 37.9421 3.62966H46.1754C46.5763 3.62966 46.7625 4.1271 46.4601 4.3903L37.2677 12.3905C35.0872 14.2883 31.8244 14.2288 29.7145 12.2529L18.0604 1.33907C17.1766 0.51142 16.0111 0.0508959 14.8003 0.0508959H2.5308C0.591145 0.0508959 -0.372313 2.40311 1.01001 3.76379L16.4938 19.0051C16.8402 19.346 16.8387 19.9049 16.4907 20.2441L0.817978 35.5168C-0.57496 36.8742 0.38604 39.2373 2.33097 39.2373H14.5658C15.9113 39.2373 17.2045 38.7161 18.1739 37.783L29.3228 27.0523C31.6312 24.8304 35.2691 24.7853 37.6319 26.9493L45.9925 34.6062C46.2841 34.8734 46.0951 35.3596 45.6996 35.3596H39.0692C38.5021 35.3596 37.9575 35.1373 37.5523 34.7404L29.527 26.8803L26.6756 29.6239L35.2814 38.0073C36.091 38.7959 37.1766 39.2373 38.3068 39.2373H49.9877C52.3425 39.2373 53.4857 36.3582 51.7722 34.7429L41.3189 24.8886C36.9127 20.7349 30.012 20.8043 25.6901 25.0457L15.1042 35.4345H7.55846C7.17125 35.4345 6.97823 34.9655 7.25324 34.693L20.5945 21.4699C21.6199 20.4537 21.6217 18.7969 20.5985 17.7785L7.12876 4.37053C6.85465 4.09768 7.04788 3.62966 7.43464 3.62966H14.7825L26.2995 14.5312C30.3024 18.3202 36.5655 18.3307 40.581 14.5551L52.0755 3.74729C53.5062 2.40212 52.5542 0 50.5905 0H38.216C37.1579 0 36.1452 0.429655 35.41 1.1905Z" fill="url(#paint0_linear_610_3157)"/>
<path d="M35.41 1.1905L27.105 9.78434L29.6995 12.2012L37.6262 3.76632C37.7081 3.67912 37.8225 3.62966 37.9421 3.62966H46.1754C46.5763 3.62966 46.7625 4.1271 46.4601 4.3903L37.2677 12.3905C35.0872 14.2883 31.8244 14.2288 29.7145 12.2529L18.0604 1.33907C17.1766 0.51142 16.0111 0.0508959 14.8003 0.0508959H2.5308C0.591145 0.0508959 -0.372313 2.40311 1.01001 3.76379L16.4938 19.0051C16.8402 19.346 16.8387 19.9049 16.4907 20.2441L0.817978 35.5168C-0.57496 36.8742 0.38604 39.2373 2.33097 39.2373H14.5658C15.9113 39.2373 17.2045 38.7161 18.1739 37.783L29.3228 27.0523C31.6312 24.8304 35.2691 24.7853 37.6319 26.9493L45.9925 34.6062C46.2841 34.8734 46.0951 35.3596 45.6996 35.3596H39.0692C38.5021 35.3596 37.9575 35.1373 37.5523 34.7404L29.527 26.8803L26.6756 29.6239L35.2814 38.0073C36.091 38.7959 37.1766 39.2373 38.3068 39.2373H49.9877C52.3425 39.2373 53.4857 36.3582 51.7722 34.7429L41.3189 24.8886C36.9127 20.7349 30.012 20.8043 25.6901 25.0457L15.1042 35.4345H7.55846C7.17125 35.4345 6.97823 34.9655 7.25324 34.693L20.5945 21.4699C21.6199 20.4537 21.6217 18.7969 20.5985 17.7785L7.12876 4.37053C6.85465 4.09768 7.04788 3.62966 7.43464 3.62966H14.7825L26.2995 14.5312C30.3024 18.3202 36.5655 18.3307 40.581 14.5551L52.0755 3.74729C53.5062 2.40212 52.5542 0 50.5905 0H38.216C37.1579 0 36.1452 0.429655 35.41 1.1905Z" fill="url(#paint1_angular_610_3157)" fill-opacity="0.8"/>
<path d="M35.41 1.1905L27.105 9.78434L29.6995 12.2012L37.6262 3.76632C37.7081 3.67912 37.8225 3.62966 37.9421 3.62966H46.1754C46.5763 3.62966 46.7625 4.1271 46.4601 4.3903L37.2677 12.3905C35.0872 14.2883 31.8244 14.2288 29.7145 12.2529L18.0604 1.33907C17.1766 0.51142 16.0111 0.0508959 14.8003 0.0508959H2.5308C0.591145 0.0508959 -0.372313 2.40311 1.01001 3.76379L16.4938 19.0051C16.8402 19.346 16.8387 19.9049 16.4907 20.2441L0.817978 35.5168C-0.57496 36.8742 0.38604 39.2373 2.33097 39.2373H14.5658C15.9113 39.2373 17.2045 38.7161 18.1739 37.783L29.3228 27.0523C31.6312 24.8304 35.2691 24.7853 37.6319 26.9493L45.9925 34.6062C46.2841 34.8734 46.0951 35.3596 45.6996 35.3596H39.0692C38.5021 35.3596 37.9575 35.1373 37.5523 34.7404L29.527 26.8803L26.6756 29.6239L35.2814 38.0073C36.091 38.7959 37.1766 39.2373 38.3068 39.2373H49.9877C52.3425 39.2373 53.4857 36.3582 51.7722 34.7429L41.3189 24.8886C36.9127 20.7349 30.012 20.8043 25.6901 25.0457L15.1042 35.4345H7.55846C7.17125 35.4345 6.97823 34.9655 7.25324 34.693L20.5945 21.4699C21.6199 20.4537 21.6217 18.7969 20.5985 17.7785L7.12876 4.37053C6.85465 4.09768 7.04788 3.62966 7.43464 3.62966H14.7825L26.2995 14.5312C30.3024 18.3202 36.5655 18.3307 40.581 14.5551L52.0755 3.74729C53.5062 2.40212 52.5542 0 50.5905 0H38.216C37.1579 0 36.1452 0.429655 35.41 1.1905Z" fill="url(#paint2_angular_610_3157)" fill-opacity="0.8"/>
<defs>
<linearGradient id="paint0_linear_610_3157" x1="9.86029" y1="5.86609" x2="52.7847" y2="47.0562" gradientUnits="userSpaceOnUse">
<stop stop-color="#7BF165"/>
<stop offset="1" stop-color="#E4F275"/>
</linearGradient>
<radialGradient id="paint1_angular_610_3157" cx="0" cy="0" r="1" gradientUnits="userSpaceOnUse" gradientTransform="translate(30.3281 12.906) rotate(-136.282) scale(5.43366 3.53741)">
<stop/>
<stop offset="0.265625" stop-opacity="0.04"/>
<stop offset="0.401042" stop-opacity="0"/>
<stop offset="0.421875" stop-opacity="0"/>
<stop offset="1" stop-opacity="0"/>
</radialGradient>
<radialGradient id="paint2_angular_610_3157" cx="0" cy="0" r="1" gradientUnits="userSpaceOnUse" gradientTransform="translate(30.755 25.79) rotate(136.223) scale(8.7571 7.96293)">
<stop offset="0.00780658"/>
<stop offset="0.113747" stop-opacity="0.65"/>
<stop offset="0.261463" stop-opacity="0"/>
<stop offset="0.895833" stop-opacity="0"/>
<stop offset="0.990878" stop-opacity="0"/>
</radialGradient>
</defs>
</svg>
